<svg version="1.1" xmlns="http://www.w3.org/2000/svg" xmlns:xlink="http://www.w3.org/1999/xlink" width="600" height="600" style="width: 600px; height: 600px;"><defs><clipPath id="EEWrxWiRWqvg"><path fill="none" stroke="none" d=" M 57 5 L 570 5 L 570 551 L 57 551 L 57 5 Z"/></clipPath><clipPath id="fdEBNToXAavZ"><path fill="none" stroke="none" d=" M 57 5 L 570 5 L 570 551 L 57 551 L 57 5 Z"/></clipPath></defs><g><g transform="scale(1,1) translate(0.5,0.5)"><rect fill="#FFFFFF" stroke="none" x="0" y="0" width="600" height="600"/><rect fill="#ffffff" stroke="none" x="0" y="0" width="600" height="600"/><rect fill="#FFFFFF" stroke="none" x="57" y="5" width="513" height="546"/><rect fill="#ffffff" stroke="none" x="57" y="5" width="513" height="546"/><g><rect fill="none" stroke="#e5e5e5" x="57" y="5" width="513" height="546" stroke-miterlimit="10"/></g><g clip-path="url(#EEWrxWiRWqvg)"><g><g><path fill="none" stroke="#e5e5e5" paint-order="fill stroke markers" d=" M 103 551 L 103 5" stroke-miterlimit="10"/><path fill="none" stroke="#e5e5e5" paint-order="fill stroke markers" d=" M 170 551 L 170 5" stroke-miterlimit="10"/><path fill="none" stroke="#e5e5e5" paint-order="fill stroke markers" d=" M 236 551 L 236 5" stroke-miterlimit="10"/><path fill="none" stroke="#e5e5e5" paint-order="fill stroke markers" d=" M 303 551 L 303 5" stroke-miterlimit="10"/><path fill="none" stroke="#e5e5e5" paint-order="fill stroke markers" d=" M 369 551 L 369 5" stroke-miterlimit="10"/><path fill="none" stroke="#e5e5e5" paint-order="fill stroke markers" d=" M 435 551 L 435 5" stroke-miterlimit="10"/><path fill="none" stroke="#e5e5e5" paint-order="fill stroke markers" d=" M 502 551 L 502 5" stroke-miterlimit="10"/><path fill="none" stroke="#e5e5e5" paint-order="fill stroke markers" d=" M 568 551 L 568 5" stroke-miterlimit="10"/></g><g><path fill="none" stroke="#e5e5e5" paint-order="fill stroke markers" d=" M 57 502 L 570 502" stroke-miterlimit="10"/><path fill="none" stroke="#e5e5e5" paint-order="fill stroke markers" d=" M 57 431 L 570 431" stroke-miterlimit="10"/><path fill="none" stroke="#e5e5e5" paint-order="fill stroke markers" d=" M 57 360 L 570 360" stroke-miterlimit="10"/><path fill="none" stroke="#e5e5e5" paint-order="fill stroke markers" d=" M 57 290 L 570 290" stroke-miterlimit="10"/><path fill="none" stroke="#e5e5e5" paint-order="fill stroke markers" d=" M 57 219 L 570 219" stroke-miterlimit="10"/><path fill="none" stroke="#e5e5e5" paint-order="fill stroke markers" d=" M 57 148 L 570 148" stroke-miterlimit="10"/><path fill="none" stroke="#e5e5e5" paint-order="fill stroke markers" d=" M 57 77 L 570 77" stroke-miterlimit="10"/><path fill="none" stroke="#e5e5e5" paint-order="fill stroke markers" d=" M 57 7 L 570 7" stroke-miterlimit="10"/></g><g stroke="#1f77b4" stroke-miterlimit="10"><path fill="none" stroke="none"/><path fill="none" stroke="" d=""/><g transform="translate(80.31818181818187,281.3801893673067)"><path fill="none" stroke="" paint-order="fill stroke markers" d=" M -2 2 L 2 -2 M -2 -2 L 2 2"/><g transform="translate(-80.31818181818187,-281.3801893673067)"><path fill="none" stroke="" d=""/><g transform="translate(401.7231367461502,281.3801893673067)"><path fill="none" stroke="" paint-order="fill stroke markers" d=" M -2 2 L 2 -2 M -2 -2 L 2 2"/><g transform="translate(-401.7231367461502,-281.3801893673067)"><path fill="none" stroke="" d=""/><g transform="translate(312.0787889301163,251.12657143597494)"><path fill="none" stroke="" paint-order="fill stroke markers" d=" M -2 2 L 2 -2 M -2 -2 L 2 2"/><g transform="translate(-312.0787889301163,-251.12657143597494)"><path fill="none" stroke="" d=""/><g transform="translate(422.0170048150668,204.11035627696094)"><path fill="none" stroke="" paint-order="fill stroke markers" d=" M -2 2 L 2 -2 M -2 -2 L 2 2"/><g transform="translate(-422.0170048150668,-204.11035627696094)"><path fill="none" stroke="" d=""/><g transform="translate(421.5666652006188,198.43101352001474)"><path fill="none" stroke="" paint-order="fill stroke markers" d=" M -2 2 L 2 -2 M -2 -2 L 2 2"/><g transform="translate(-421.5666652006188,-198.43101352001474)"><path fill="none" stroke="" d=""/><g transform="translate(438.49667059071567,236.0331682903859)"><path fill="none" stroke="" paint-order="fill stroke markers" d=" M -2 2 L 2 -2 M -2 -2 L 2 2"/><g transform="translate(-438.49667059071567,-236.0331682903859)"><path fill="none" stroke="" d=""/><g transform="translate(332.1866291865489,373.2803820364628)"><path fill="none" stroke="" paint-order="fill stroke markers" d=" M -2 2 L 2 -2 M -2 -2 L 2 2"/><g transform="translate(-332.1866291865489,-373.2803820364628)"><path fill="none" stroke="" d=""/><g transform="translate(437.2580173654595,257.72334043949024)"><path fill="none" stroke="" paint-order="fill stroke markers" d=" M -2 2 L 2 -2 M -2 -2 L 2 2"/><g transform="translate(-437.2580173654595,-257.72334043949024)"><path fill="none" stroke="" d=""/><g transform="translate(546.6818181818182,278.6720124175914)"><path fill="none" stroke="" paint-order="fill stroke markers" d=" M -2 2 L 2 -2 M -2 -2 L 2 2"/><g transform="translate(-546.6818181818182,-278.6720124175914)"><path fill="none" stroke="" d=""/><g transform="translate(239.7288026761463,264.1422024928306)"><path fill="none" stroke="" paint-order="fill stroke markers" d=" M -2 2 L 2 -2 M -2 -2 L 2 2"/><g transform="translate(-239.7288026761463,-264.1422024928306)"><path fill="none" stroke="" d=""/><g transform="translate(108.19638313705036,430.3537556159379)"><path fill="none" stroke="" paint-order="fill stroke markers" d=" M -2 2 L 2 -2 M -2 -2 L 2 2"/><g transform="translate(-108.19638313705036,-430.3537556159379)"><path fill="none" stroke="" d=""/><g transform="translate(200.15490769169975,340.8815078150709)"><path fill="none" stroke="" paint-order="fill stroke markers" d=" M -2 2 L 2 -2 M -2 -2 L 2 2"/><g transform="translate(-200.15490769169975,-340.8815078150709)"><path fill="none" stroke="" d=""/><g transform="translate(272.32489078496985,241.27903969819192)"><path fill="none" stroke="" paint-order="fill stroke markers" d=" M -2 2 L 2 -2 M -2 -2 L 2 2"/><g transform="translate(-272.32489078496985,-241.27903969819192)"><path fill="none" stroke="" d=""/><g transform="translate(440.2539149841198,200.94377507000627)"><path fill="none" stroke="" paint-order="fill stroke markers" d=" M -2 2 L 2 -2 M -2 -2 L 2 2"/><g transform="translate(-440.2539149841198,-200.94377507000627)"><path fill="none" stroke="" d=""/><g transform="translate(358.34739826328973,209.11144045272545)"><path fill="none" stroke="" paint-order="fill stroke markers" d=" M -2 2 L 2 -2 M -2 -2 L 2 2"/><g transform="translate(-358.34739826328973,-209.11144045272545)"><path fill="none" stroke="" d=""/><g transform="translate(331.8417005432974,230.36822740792388)"><path fill="none" stroke="" paint-order="fill stroke markers" d=" M -2 2 L 2 -2 M -2 -2 L 2 2"/><g transform="translate(-331.8417005432974,-230.36822740792388)"><path fill="none" stroke="" d=""/><g transform="translate(381.77049213574855,175.95394759073668)"><path fill="none" stroke="" paint-order="fill stroke markers" d=" M -2 2 L 2 -2 M -2 -2 L 2 2"/><g transform="translate(-381.77049213574855,-175.95394759073668)"><path fill="none" stroke="" d=""/><g transform="translate(495.18862251353653,161.28004029340138)"><path fill="none" stroke="" paint-order="fill stroke markers" d=" M -2 2 L 2 -2 M -2 -2 L 2 2"/><g transform="translate(-495.18862251353653,-161.28004029340138)"><path fill="none" stroke="" d=""/><g transform="translate(253.4389000394848,210.63076258378862)"><path fill="none" stroke="" paint-order="fill stroke markers" d=" M -2 2 L 2 -2 M -2 -2 L 2 2"/><g transform="translate(-253.4389000394848,-210.63076258378862)"><path fill="none" stroke="" d=""/><g transform="translate(310.6025968097654,185.66695058639675)"><path fill="none" stroke="" paint-order="fill stroke markers" d=" M -2 2 L 2 -2 M -2 -2 L 2 2"/><g transform="translate(-310.6025968097654,-185.66695058639675)"/></g></g></g></g></g></g></g></g></g></g></g></g></g></g></g></g></g></g></g></g></g></g></g></g></g></g></g></g></g></g></g></g></g></g></g></g></g></g></g></g><g><path fill="none" stroke="none"/><path fill="none" stroke="green" paint-order="fill stroke markers" d=" M 80.31818181818187 526.1818181818181 L 89.83580705009285 516.0519480519479 L 99.35343228200378 505.92207792207785 L 108.8710575139147 495.7922077922077 L 118.38868274582569 485.66233766233756 L 127.90630797773662 475.5324675324674 L 137.42393320964754 465.40259740259734 L 146.94155844155847 455.27272727272725 L 156.45918367346945 445.14285714285705 L 165.97680890538038 435.01298701298697 L 175.49443413729136 424.88311688311677 L 185.0120593692023 414.7532467532467 L 194.52968460111322 404.62337662337654 L 204.04730983302414 394.4935064935065 L 213.56493506493513 384.36363636363626 L 223.08256029684605 374.23376623376623 L 232.60018552875704 364.103896103896 L 242.11781076066802 353.97402597402584 L 251.6354359925789 343.8441558441558 L 261.15306122448976 333.71428571428567 L 270.67068645640074 323.5844155844155 L 280.1883116883117 313.4545454545454 L 289.7059369202227 303.32467532467524 L 299.2235621521336 293.1948051948051 L 308.74118738404457 283.06493506493507 L 318.25881261595543 272.93506493506493 L 327.7764378478664 262.8051948051947 L 337.2940630797775 252.67532467532453 L 346.8116883116884 242.5454545454544 L 356.32931354359926 232.41558441558436 L 365.84693877551024 222.28571428571422 L 375.3645640074211 212.1558441558442 L 384.8821892393321 202.02597402597394 L 394.3998144712432 191.8961038961038 L 403.91743970315406 181.76623376623365 L 413.43506493506493 171.63636363636363 L 422.9526901669759 161.50649350649348 L 432.4703153988868 151.37662337662334 L 441.98794063079777 141.2467532467532 L 451.50556586270875 131.11688311688295 L 461.02319109461973 120.98701298701292 L 470.5408163265306 110.85714285714278 L 480.0584415584416 100.72727272727275 L 489.57606679035257 90.59740259740249 L 499.09369202226344 80.46753246753246 L 508.6113172541744 70.33766233766232 L 518.1289424860854 60.20779220779207 L 527.6465677179963 50.07792207792204 L 537.1641929499071 39.9480519480519 L 546.6818181818182 29.818181818181756" stroke-miterlimit="10" stroke-dasharray="6"/></g></g></g><g clip-path="url(#fdEBNToXAavZ)"><g/></g><g><g fill="#444444"><path fill="none" stroke="black" paint-order="fill stroke markers" d=" M 57 551 L 570 551" stroke-miterlimit="10"/><path fill="none" stroke="black" paint-order="fill stroke markers" d=" M 103 557 L 103 549" stroke-miterlimit="10"/><path fill="none" stroke="black" paint-order="fill stroke markers" d=" M 170 557 L 170 549" stroke-miterlimit="10"/><path fill="none" stroke="black" paint-order="fill stroke markers" d=" M 236 557 L 236 549" stroke-miterlimit="10"/><path fill="none" stroke="black" paint-order="fill stroke markers" d=" M 303 557 L 303 549" stroke-miterlimit="10"/><path fill="none" stroke="black" paint-order="fill stroke markers" d=" M 369 557 L 369 549" stroke-miterlimit="10"/><path fill="none" stroke="black" paint-order="fill stroke markers" d=" M 435 557 L 435 549" stroke-miterlimit="10"/><path fill="none" stroke="black" paint-order="fill stroke markers" d=" M 502 557 L 502 549" stroke-miterlimit="10"/><path fill="none" stroke="black" paint-order="fill stroke markers" d=" M 568 557 L 568 549" stroke-miterlimit="10"/><path fill="none" stroke="black" paint-order="fill stroke markers" d=" M 90 555 L 90 551" stroke-miterlimit="10"/><path fill="none" stroke="black" paint-order="fill stroke markers" d=" M 76 555 L 76 551" stroke-miterlimit="10"/><path fill="none" stroke="black" paint-order="fill stroke markers" d=" M 63 555 L 63 551" stroke-miterlimit="10"/><path fill="none" stroke="black" paint-order="fill stroke markers" d=" M 103 555 L 103 551" stroke-miterlimit="10"/><path fill="none" stroke="black" paint-order="fill stroke markers" d=" M 116 555 L 116 551" stroke-miterlimit="10"/><path fill="none" stroke="black" paint-order="fill stroke markers" d=" M 130 555 L 130 551" stroke-miterlimit="10"/><path fill="none" stroke="black" paint-order="fill stroke markers" d=" M 143 555 L 143 551" stroke-miterlimit="10"/><path fill="none" stroke="black" paint-order="fill stroke markers" d=" M 156 555 L 156 551" stroke-miterlimit="10"/><path fill="none" stroke="black" paint-order="fill stroke markers" d=" M 170 555 L 170 551" stroke-miterlimit="10"/><path fill="none" stroke="black" paint-order="fill stroke markers" d=" M 183 555 L 183 551" stroke-miterlimit="10"/><path fill="none" stroke="black" paint-order="fill stroke markers" d=" M 196 555 L 196 551" stroke-miterlimit="10"/><path fill="none" stroke="black" paint-order="fill stroke markers" d=" M 209 555 L 209 551" stroke-miterlimit="10"/><path fill="none" stroke="black" paint-order="fill stroke markers" d=" M 223 555 L 223 551" stroke-miterlimit="10"/><path fill="none" stroke="black" paint-order="fill stroke markers" d=" M 236 555 L 236 551" stroke-miterlimit="10"/><path fill="none" stroke="black" paint-order="fill stroke markers" d=" M 249 555 L 249 551" stroke-miterlimit="10"/><path fill="none" stroke="black" paint-order="fill stroke markers" d=" M 263 555 L 263 551" stroke-miterlimit="10"/><path fill="none" stroke="black" paint-order="fill stroke markers" d=" M 276 555 L 276 551" stroke-miterlimit="10"/><path fill="none" stroke="black" paint-order="fill stroke markers" d=" M 289 555 L 289 551" stroke-miterlimit="10"/><path fill="none" stroke="black" paint-order="fill stroke markers" d=" M 303 555 L 303 551" stroke-miterlimit="10"/><path fill="none" stroke="black" paint-order="fill stroke markers" d=" M 316 555 L 316 551" stroke-miterlimit="10"/><path fill="none" stroke="black" paint-order="fill stroke markers" d=" M 329 555 L 329 551" stroke-miterlimit="10"/><path fill="none" stroke="black" paint-order="fill stroke markers" d=" M 342 555 L 342 551" stroke-miterlimit="10"/><path fill="none" stroke="black" paint-order="fill stroke markers" d=" M 356 555 L 356 551" stroke-miterlimit="10"/><path fill="none" stroke="black" paint-order="fill stroke markers" d=" M 369 555 L 369 551" stroke-miterlimit="10"/><path fill="none" stroke="black" paint-order="fill stroke markers" d=" M 382 555 L 382 551" stroke-miterlimit="10"/><path fill="none" stroke="black" paint-order="fill stroke markers" d=" M 396 555 L 396 551" stroke-miterlimit="10"/><path fill="none" stroke="black" paint-order="fill stroke markers" d=" M 409 555 L 409 551" stroke-miterlimit="10"/><path fill="none" stroke="black" paint-order="fill stroke markers" d=" M 422 555 L 422 551" stroke-miterlimit="10"/><path fill="none" stroke="black" paint-order="fill stroke markers" d=" M 435 555 L 435 551" stroke-miterlimit="10"/><path fill="none" stroke="black" paint-order="fill stroke markers" d=" M 449 555 L 449 551" stroke-miterlimit="10"/><path fill="none" stroke="black" paint-order="fill stroke markers" d=" M 462 555 L 462 551" stroke-miterlimit="10"/><path fill="none" stroke="black" paint-order="fill stroke markers" d=" M 475 555 L 475 551" stroke-miterlimit="10"/><path fill="none" stroke="black" paint-order="fill stroke markers" d=" M 489 555 L 489 551" stroke-miterlimit="10"/><path fill="none" stroke="black" paint-order="fill stroke markers" d=" M 502 555 L 502 551" stroke-miterlimit="10"/><path fill="none" stroke="black" paint-order="fill stroke markers" d=" M 515 555 L 515 551" stroke-miterlimit="10"/><path fill="none" stroke="black" paint-order="fill stroke markers" d=" M 529 555 L 529 551" stroke-miterlimit="10"/><path fill="none" stroke="black" paint-order="fill stroke markers" d=" M 542 555 L 542 551" stroke-miterlimit="10"/><path fill="none" stroke="black" paint-order="fill stroke markers" d=" M 555 555 L 555 551" stroke-miterlimit="10"/><path fill="" stroke="black" paint-order="fill stroke markers" d=" M 568 555 L 568 551" stroke-miterlimit="10"/><g transform="translate(103,562) rotate(0,0,0)"><text fill="" stroke="none" font-family="helvetica" font-size="8pt" font-style="normal" font-weight="normal" text-decoration="normal" x="0" y="0" text-anchor="middle" dominant-baseline="hanging">120</text><g transform="rotate(0,0,0) translate(-103,-562) translate(170,562) rotate(0,0,0)"><text fill="" stroke="none" font-family="helvetica" font-size="8pt" font-style="normal" font-weight="normal" text-decoration="normal" x="0" y="0" text-anchor="middle" dominant-baseline="hanging">140</text><g transform="rotate(0,0,0) translate(-170,-562) translate(236,562) rotate(0,0,0)"><text fill="" stroke="none" font-family="helvetica" font-size="8pt" font-style="normal" font-weight="normal" text-decoration="normal" x="0" y="0" text-anchor="middle" dominant-baseline="hanging">160</text><g transform="rotate(0,0,0) translate(-236,-562) translate(303,562) rotate(0,0,0)"><text fill="" stroke="none" font-family="helvetica" font-size="8pt" font-style="normal" font-weight="normal" text-decoration="normal" x="0" y="0" text-anchor="middle" dominant-baseline="hanging">180</text><g transform="rotate(0,0,0) translate(-303,-562) translate(369,562) rotate(0,0,0)"><text fill="" stroke="none" font-family="helvetica" font-size="8pt" font-style="normal" font-weight="normal" text-decoration="normal" x="0" y="0" text-anchor="middle" dominant-baseline="hanging">200</text><g transform="rotate(0,0,0) translate(-369,-562) translate(435,562) rotate(0,0,0)"><text fill="" stroke="none" font-family="helvetica" font-size="8pt" font-style="normal" font-weight="normal" text-decoration="normal" x="0" y="0" text-anchor="middle" dominant-baseline="hanging">220</text><g transform="rotate(0,0,0) translate(-435,-562) translate(502,562) rotate(0,0,0)"><text fill="" stroke="none" font-family="helvetica" font-size="8pt" font-style="normal" font-weight="normal" text-decoration="normal" x="0" y="0" text-anchor="middle" dominant-baseline="hanging">240</text><g transform="rotate(0,0,0) translate(-502,-562) translate(568,562) rotate(0,0,0)"><text fill="" stroke="none" font-family="helvetica" font-size="8pt" font-style="normal" font-weight="normal" text-decoration="normal" x="0" y="0" text-anchor="middle" dominant-baseline="hanging">260</text><g transform="rotate(0,0,0) translate(-568,-562) translate(314,582) rotate(0,0,0)"><text fill="" stroke="none" font-family="helvetica" font-size="10pt" font-style="italic" font-weight="normal" text-decoration="normal" x="0" y="0" text-anchor="middle" dominant-baseline="hanging">ΔT(40J)</text><g transform="rotate(0,0,0) translate(-314,-582)"/></g></g></g></g></g></g></g></g></g></g><g fill="#444444"><path fill="none" stroke="black" paint-order="fill stroke markers" d=" M 57 551 L 57 5" stroke-miterlimit="10"/><path fill="none" stroke="black" paint-order="fill stroke markers" d=" M 51 502 L 59 502" stroke-miterlimit="10"/><path fill="none" stroke="black" paint-order="fill stroke markers" d=" M 51 431 L 59 431" stroke-miterlimit="10"/><path fill="none" stroke="black" paint-order="fill stroke markers" d=" M 51 360 L 59 360" stroke-miterlimit="10"/><path fill="none" stroke="black" paint-order="fill stroke markers" d=" M 51 290 L 59 290" stroke-miterlimit="10"/><path fill="none" stroke="black" paint-order="fill stroke markers" d=" M 51 219 L 59 219" stroke-miterlimit="10"/><path fill="none" stroke="black" paint-order="fill stroke markers" d=" M 51 148 L 59 148" stroke-miterlimit="10"/><path fill="none" stroke="black" paint-order="fill stroke markers" d=" M 51 77 L 59 77" stroke-miterlimit="10"/><path fill="none" stroke="black" paint-order="fill stroke markers" d=" M 51 7 L 59 7" stroke-miterlimit="10"/><path fill="none" stroke="black" paint-order="fill stroke markers" d=" M 53 516 L 57 516" stroke-miterlimit="10"/><path fill="none" stroke="black" paint-order="fill stroke markers" d=" M 53 530 L 57 530" stroke-miterlimit="10"/><path fill="none" stroke="black" paint-order="fill stroke markers" d=" M 53 544 L 57 544" stroke-miterlimit="10"/><path fill="none" stroke="black" paint-order="fill stroke markers" d=" M 53 502 L 57 502" stroke-miterlimit="10"/><path fill="none" stroke="black" paint-order="fill stroke markers" d=" M 53 488 L 57 488" stroke-miterlimit="10"/><path fill="none" stroke="black" paint-order="fill stroke markers" d=" M 53 474 L 57 474" stroke-miterlimit="10"/><path fill="none" stroke="black" paint-order="fill stroke markers" d=" M 53 460 L 57 460" stroke-miterlimit="10"/><path fill="none" stroke="black" paint-order="fill stroke markers" d=" M 53 445 L 57 445" stroke-miterlimit="10"/><path fill="none" stroke="black" paint-order="fill stroke markers" d=" M 53 431 L 57 431" stroke-miterlimit="10"/><path fill="none" stroke="black" paint-order="fill stroke markers" d=" M 53 417 L 57 417" stroke-miterlimit="10"/><path fill="none" stroke="black" paint-order="fill stroke markers" d=" M 53 403 L 57 403" stroke-miterlimit="10"/><path fill="none" stroke="black" paint-order="fill stroke markers" d=" M 53 389 L 57 389" stroke-miterlimit="10"/><path fill="none" stroke="black" paint-order="fill stroke markers" d=" M 53 375 L 57 375" stroke-miterlimit="10"/><path fill="none" stroke="black" paint-order="fill stroke markers" d=" M 53 360 L 57 360" stroke-miterlimit="10"/><path fill="none" stroke="black" paint-order="fill stroke markers" d=" M 53 346 L 57 346" stroke-miterlimit="10"/><path fill="none" stroke="black" paint-order="fill stroke markers" d=" M 53 332 L 57 332" stroke-miterlimit="10"/><path fill="none" stroke="black" paint-order="fill stroke markers" d=" M 53 318 L 57 318" stroke-miterlimit="10"/><path fill="none" stroke="black" paint-order="fill stroke markers" d=" M 53 304 L 57 304" stroke-miterlimit="10"/><path fill="none" stroke="black" paint-order="fill stroke markers" d=" M 53 290 L 57 290" stroke-miterlimit="10"/><path fill="none" stroke="black" paint-order="fill stroke markers" d=" M 53 276 L 57 276" stroke-miterlimit="10"/><path fill="none" stroke="black" paint-order="fill stroke markers" d=" M 53 261 L 57 261" stroke-miterlimit="10"/><path fill="none" stroke="black" paint-order="fill stroke markers" d=" M 53 247 L 57 247" stroke-miterlimit="10"/><path fill="none" stroke="black" paint-order="fill stroke markers" d=" M 53 233 L 57 233" stroke-miterlimit="10"/><path fill="none" stroke="black" paint-order="fill stroke markers" d=" M 53 219 L 57 219" stroke-miterlimit="10"/><path fill="none" stroke="black" paint-order="fill stroke markers" d=" M 53 205 L 57 205" stroke-miterlimit="10"/><path fill="none" stroke="black" paint-order="fill stroke markers" d=" M 53 191 L 57 191" stroke-miterlimit="10"/><path fill="none" stroke="black" paint-order="fill stroke markers" d=" M 53 176 L 57 176" stroke-miterlimit="10"/><path fill="none" stroke="black" paint-order="fill stroke markers" d=" M 53 162 L 57 162" stroke-miterlimit="10"/><path fill="none" stroke="black" paint-order="fill stroke markers" d=" M 53 148 L 57 148" stroke-miterlimit="10"/><path fill="none" stroke="black" paint-order="fill stroke markers" d=" M 53 134 L 57 134" stroke-miterlimit="10"/><path fill="none" stroke="black" paint-order="fill stroke markers" d=" M 53 120 L 57 120" stroke-miterlimit="10"/><path fill="none" stroke="black" paint-order="fill stroke markers" d=" M 53 106 L 57 106" stroke-miterlimit="10"/><path fill="none" stroke="black" paint-order="fill stroke markers" d=" M 53 92 L 57 92" stroke-miterlimit="10"/><path fill="none" stroke="black" paint-order="fill stroke markers" d=" M 53 77 L 57 77" stroke-miterlimit="10"/><path fill="none" stroke="black" paint-order="fill stroke markers" d=" M 53 63 L 57 63" stroke-miterlimit="10"/><path fill="none" stroke="black" paint-order="fill stroke markers" d=" M 53 49 L 57 49" stroke-miterlimit="10"/><path fill="none" stroke="black" paint-order="fill stroke markers" d=" M 53 35 L 57 35" stroke-miterlimit="10"/><path fill="none" stroke="black" paint-order="fill stroke markers" d=" M 53 21 L 57 21" stroke-miterlimit="10"/><path fill="" stroke="black" paint-order="fill stroke markers" d=" M 53 7 L 57 7" stroke-miterlimit="10"/><g transform="translate(46,502) rotate(0,0,0)"><text fill="" stroke="none" font-family="helvetica" font-size="8pt" font-style="normal" font-weight="normal" text-decoration="normal" x="0" y="0" text-anchor="end" dominant-baseline="central">120</text><g transform="rotate(0,0,0) translate(-46,-502) translate(46,431) rotate(0,0,0)"><text fill="" stroke="none" font-family="helvetica" font-size="8pt" font-style="normal" font-weight="normal" text-decoration="normal" x="0" y="0" text-anchor="end" dominant-baseline="central">140</text><g transform="rotate(0,0,0) translate(-46,-431) translate(46,360) rotate(0,0,0)"><text fill="" stroke="none" font-family="helvetica" font-size="8pt" font-style="normal" font-weight="normal" text-decoration="normal" x="0" y="0" text-anchor="end" dominant-baseline="central">160</text><g transform="rotate(0,0,0) translate(-46,-360) translate(46,290) rotate(0,0,0)"><text fill="" stroke="none" font-family="helvetica" font-size="8pt" font-style="normal" font-weight="normal" text-decoration="normal" x="0" y="0" text-anchor="end" dominant-baseline="central">180</text><g transform="rotate(0,0,0) translate(-46,-290) translate(46,219) rotate(0,0,0)"><text fill="" stroke="none" font-family="helvetica" font-size="8pt" font-style="normal" font-weight="normal" text-decoration="normal" x="0" y="0" text-anchor="end" dominant-baseline="central">200</text><g transform="rotate(0,0,0) translate(-46,-219) translate(46,148) rotate(0,0,0)"><text fill="" stroke="none" font-family="helvetica" font-size="8pt" font-style="normal" font-weight="normal" text-decoration="normal" x="0" y="0" text-anchor="end" dominant-baseline="central">220</text><g transform="rotate(0,0,0) translate(-46,-148) translate(46,77) rotate(0,0,0)"><text fill="" stroke="none" font-family="helvetica" font-size="8pt" font-style="normal" font-weight="normal" text-decoration="normal" x="0" y="0" text-anchor="end" dominant-baseline="central">240</text><g transform="rotate(0,0,0) translate(-46,-77) translate(46,7) rotate(0,0,0)"><text fill="" stroke="none" font-family="helvetica" font-size="8pt" font-style="normal" font-weight="normal" text-decoration="normal" x="0" y="0" text-anchor="end" dominant-baseline="central">260</text><g transform="rotate(0,0,0) translate(-46,-7) translate(18,278) rotate(-90,0,0)"><text fill="" stroke="none" font-family="helvetica" font-size="10pt" font-style="italic" font-weight="normal" text-decoration="normal" x="0" y="0" text-anchor="middle" dominant-baseline="alphabetic">Fit</text><g transform="rotate(90,0,0) translate(-18,-278)"/></g></g></g></g></g></g></g></g></g></g></g></g></g></svg>