<svg version="1.1" xmlns="http://www.w3.org/2000/svg" xmlns:xlink="http://www.w3.org/1999/xlink" width="1200" height="400" style="width: 1200px; height: 400px;"><defs><clipPath id="HtzobliNGEEG"><path fill="none" stroke="none" d=" M 57 5 L 1170 5 L 1170 351 L 57 351 L 57 5 Z"/></clipPath><clipPath id="LShJNdpEFGpi"><path fill="none" stroke="none" d=" M 57 5 L 1170 5 L 1170 351 L 57 351 L 57 5 Z"/></clipPath></defs><g><g transform="scale(1,1) translate(0.5,0.5)"><rect fill="#FFFFFF" stroke="none" x="0" y="0" width="1200" height="400"/><rect fill="#ffffff" stroke="none" x="0" y="0" width="1200" height="400"/><rect fill="#FFFFFF" stroke="none" x="57" y="5" width="1113" height="346"/><rect fill="#ffffff" stroke="none" x="57" y="5" width="1113" height="346"/><g><rect fill="none" stroke="#e5e5e5" x="57" y="5" width="1113" height="346" stroke-miterlimit="10"/></g><g clip-path="url(#HtzobliNGEEG)"><g><g><path fill="none" stroke="#e5e5e5" paint-order="fill stroke markers" d=" M 157 351 L 157 5" stroke-miterlimit="10"/><path fill="none" stroke="#e5e5e5" paint-order="fill stroke markers" d=" M 301 351 L 301 5" stroke-miterlimit="10"/><path fill="none" stroke="#e5e5e5" paint-order="fill stroke markers" d=" M 445 351 L 445 5" stroke-miterlimit="10"/><path fill="none" stroke="#e5e5e5" paint-order="fill stroke markers" d=" M 590 351 L 590 5" stroke-miterlimit="10"/><path fill="none" stroke="#e5e5e5" paint-order="fill stroke markers" d=" M 734 351 L 734 5" stroke-miterlimit="10"/><path fill="none" stroke="#e5e5e5" paint-order="fill stroke markers" d=" M 878 351 L 878 5" stroke-miterlimit="10"/><path fill="none" stroke="#e5e5e5" paint-order="fill stroke markers" d=" M 1022 351 L 1022 5" stroke-miterlimit="10"/><path fill="none" stroke="#e5e5e5" paint-order="fill stroke markers" d=" M 1167 351 L 1167 5" stroke-miterlimit="10"/></g><g><path fill="none" stroke="#e5e5e5" paint-order="fill stroke markers" d=" M 57 320 L 1170 320" stroke-miterlimit="10"/><path fill="none" stroke="#e5e5e5" paint-order="fill stroke markers" d=" M 57 275 L 1170 275" stroke-miterlimit="10"/><path fill="none" stroke="#e5e5e5" paint-order="fill stroke markers" d=" M 57 230 L 1170 230" stroke-miterlimit="10"/><path fill="none" stroke="#e5e5e5" paint-order="fill stroke markers" d=" M 57 185 L 1170 185" stroke-miterlimit="10"/><path fill="none" stroke="#e5e5e5" paint-order="fill stroke markers" d=" M 57 141 L 1170 141" stroke-miterlimit="10"/><path fill="none" stroke="#e5e5e5" paint-order="fill stroke markers" d=" M 57 96 L 1170 96" stroke-miterlimit="10"/><path fill="none" stroke="#e5e5e5" paint-order="fill stroke markers" d=" M 57 51 L 1170 51" stroke-miterlimit="10"/><path fill="none" stroke="#e5e5e5" paint-order="fill stroke markers" d=" M 57 6 L 1170 6" stroke-miterlimit="10"/></g><g stroke="#1f77b4" stroke-miterlimit="10"><path fill="none" stroke="none"/><path fill="none" stroke="" d=""/><g transform="translate(107.59090909090924,180.1420247638976)"><path fill="none" stroke="" paint-order="fill stroke markers" d=" M -2 2 L 2 -2 M -2 -2 L 2 2"/><g transform="translate(-107.59090909090924,-180.1420247638976)"><path fill="none" stroke="" d=""/><g transform="translate(804.9080920048053,180.1420247638976)"><path fill="none" stroke="" paint-order="fill stroke markers" d=" M -2 2 L 2 -2 M -2 -2 L 2 2"/><g transform="translate(-804.9080920048053,-180.1420247638976)"><path fill="none" stroke="" d=""/><g transform="translate(610.4165537606617,160.97031816272403)"><path fill="none" stroke="" paint-order="fill stroke markers" d=" M -2 2 L 2 -2 M -2 -2 L 2 2"/><g transform="translate(-610.4165537606617,-160.97031816272403)"><path fill="none" stroke="" d=""/><g transform="translate(848.9374782829813,131.17615983851363)"><path fill="none" stroke="" paint-order="fill stroke markers" d=" M -2 2 L 2 -2 M -2 -2 L 2 2"/><g transform="translate(-848.9374782829813,-131.17615983851363)"><path fill="none" stroke="" d=""/><g transform="translate(847.9604256691788,127.57716241378216)"><path fill="none" stroke="" paint-order="fill stroke markers" d=" M -2 2 L 2 -2 M -2 -2 L 2 2"/><g transform="translate(-847.9604256691788,-127.57716241378216)"><path fill="none" stroke="" d=""/><g transform="translate(884.6916069541259,151.4056341180833)"><path fill="none" stroke="" paint-order="fill stroke markers" d=" M -2 2 L 2 -2 M -2 -2 L 2 2"/><g transform="translate(-884.6916069541259,-151.4056341180833)"><path fill="none" stroke="" d=""/><g transform="translate(654.0423358374834,238.37914319526755)"><path fill="none" stroke="" paint-order="fill stroke markers" d=" M -2 2 L 2 -2 M -2 -2 L 2 2"/><g transform="translate(-654.0423358374834,-238.37914319526755)"><path fill="none" stroke="" d=""/><g transform="translate(882.0042365063479,165.15068826385271)"><path fill="none" stroke="" paint-order="fill stroke markers" d=" M -2 2 L 2 -2 M -2 -2 L 2 2"/><g transform="translate(-882.0042365063479,-165.15068826385271)"><path fill="none" stroke="" d=""/><g transform="translate(1119.409090909091,178.4258540228692)"><path fill="none" stroke="" paint-order="fill stroke markers" d=" M -2 2 L 2 -2 M -2 -2 L 2 2"/><g transform="translate(-1119.409090909091,-178.4258540228692)"><path fill="none" stroke="" d=""/><g transform="translate(453.4467005429841,169.218318795823)"><path fill="none" stroke="" paint-order="fill stroke markers" d=" M -2 2 L 2 -2 M -2 -2 L 2 2"/><g transform="translate(-453.4467005429841,-169.218318795823)"><path fill="none" stroke="" d=""/><g transform="translate(168.075193823659,274.54651912658335)"><path fill="none" stroke="" paint-order="fill stroke markers" d=" M -2 2 L 2 -2 M -2 -2 L 2 2"/><g transform="translate(-168.075193823659,-274.54651912658335)"><path fill="none" stroke="" d=""/><g transform="translate(367.58754826678717,217.847988468891)"><path fill="none" stroke="" paint-order="fill stroke markers" d=" M -2 2 L 2 -2 M -2 -2 L 2 2"/><g transform="translate(-367.58754826678717,-217.847988468891)"><path fill="none" stroke="" d=""/><g transform="translate(524.1668683112504,154.72994090764536)"><path fill="none" stroke="" paint-order="fill stroke markers" d=" M -2 2 L 2 -2 M -2 -2 L 2 2"/><g transform="translate(-524.1668683112504,-154.72994090764536)"><path fill="none" stroke="" d=""/><g transform="translate(888.5041079480026,129.16949848758634)"><path fill="none" stroke="" paint-order="fill stroke markers" d=" M -2 2 L 2 -2 M -2 -2 L 2 2"/><g transform="translate(-888.5041079480026,-129.16949848758634)"><path fill="none" stroke="" d=""/><g transform="translate(710.8004956472543,134.34534504879667)"><path fill="none" stroke="" paint-order="fill stroke markers" d=" M -2 2 L 2 -2 M -2 -2 L 2 2"/><g transform="translate(-710.8004956472543,-134.34534504879667)"><path fill="none" stroke="" d=""/><g transform="translate(653.2939818804874,147.81576315593708)"><path fill="none" stroke="" paint-order="fill stroke markers" d=" M -2 2 L 2 -2 M -2 -2 L 2 2"/><g transform="translate(-653.2939818804874,-147.81576315593708)"><path fill="none" stroke="" d=""/><g transform="translate(761.6190209494895,113.33345396775616)"><path fill="none" stroke="" paint-order="fill stroke markers" d=" M -2 2 L 2 -2 M -2 -2 L 2 2"/><g transform="translate(-761.6190209494895,-113.33345396775616)"><path fill="none" stroke="" d=""/><g transform="translate(1007.6899353948658,104.03460428849235)"><path fill="none" stroke="" paint-order="fill stroke markers" d=" M -2 2 L 2 -2 M -2 -2 L 2 2"/><g transform="translate(-1007.6899353948658,-104.03460428849235)"><path fill="none" stroke="" d=""/><g transform="translate(483.19199950087034,135.30813892672313)"><path fill="none" stroke="" paint-order="fill stroke markers" d=" M -2 2 L 2 -2 M -2 -2 L 2 2"/><g transform="translate(-483.19199950087034,-135.30813892672313)"><path fill="none" stroke="" d=""/><g transform="translate(607.2138211486723,119.48858040822932)"><path fill="none" stroke="" paint-order="fill stroke markers" d=" M -2 2 L 2 -2 M -2 -2 L 2 2"/><g transform="translate(-607.2138211486723,-119.48858040822932)"/></g></g></g></g></g></g></g></g></g></g></g></g></g></g></g></g></g></g></g></g></g></g></g></g></g></g></g></g></g></g></g></g></g></g></g></g></g></g></g></g><g><path fill="none" stroke="none"/><path fill="none" stroke="green" paint-order="fill stroke markers" d=" M 107.59090909090924 335.27272727272714 L 128.24025974025994 328.8534322820036 L 148.88961038961054 322.4341372912801 L 169.53896103896113 316.0148423005565 L 190.18831168831184 309.5955473098329 L 210.83766233766255 303.1762523191093 L 231.48701298701314 296.7569573283858 L 252.13636363636374 290.33766233766227 L 272.78571428571445 283.9183673469387 L 293.43506493506504 277.4990723562151 L 314.08441558441586 271.0797773654915 L 334.73376623376646 264.660482374768 L 355.38311688311694 258.24118738404445 L 376.03246753246765 251.82189239332087 L 396.68181818181836 245.40259740259728 L 417.33116883116884 238.98330241187375 L 437.9805194805198 232.56400742115017 L 458.62987012987026 226.14471243042658 L 479.27922077922096 219.72541743970305 L 499.92857142857144 213.30612244897952 L 520.5779220779222 206.88682745825594 L 541.2272727272729 200.46753246753235 L 561.8766233766236 194.04823747680877 L 582.525974025974 187.62894248608524 L 603.1753246753248 181.2096474953617 L 623.8246753246752 174.79035250463812 L 644.4740259740262 168.37105751391454 L 665.1233766233769 161.95176252319095 L 685.7727272727274 155.53246753246742 L 706.4220779220781 149.11317254174384 L 727.0714285714286 142.6938775510203 L 747.7207792207793 136.27458256029678 L 768.37012987013 129.8552875695732 L 789.0194805194807 123.43599257884955 L 809.6688311688314 117.01669758812602 L 830.3181818181819 110.59740259740249 L 850.9675324675326 104.17810760667896 L 871.6168831168831 97.75881261595538 L 892.2662337662338 91.33951762523179 L 912.9155844155847 84.9202226345082 L 933.5649350649352 78.50092764378468 L 954.2142857142859 72.08163265306109 L 974.8636363636364 65.66233766233756 L 995.5129870129871 59.24304267161392 L 1016.1623376623378 52.82374768089039 L 1036.8116883116882 46.40445269016686 L 1057.4610389610389 39.985157699443334 L 1078.1103896103896 33.56586270871969 L 1098.7597402597403 27.146567717996163 L 1119.409090909091 20.727272727272634" stroke-miterlimit="10" stroke-dasharray="6"/></g></g></g><g clip-path="url(#LShJNdpEFGpi)"><g/></g><g><g fill="#444444"><path fill="none" stroke="black" paint-order="fill stroke markers" d=" M 57 351 L 1170 351" stroke-miterlimit="10"/><path fill="none" stroke="black" paint-order="fill stroke markers" d=" M 157 357 L 157 349" stroke-miterlimit="10"/><path fill="none" stroke="black" paint-order="fill stroke markers" d=" M 301 357 L 301 349" stroke-miterlimit="10"/><path fill="none" stroke="black" paint-order="fill stroke markers" d=" M 445 357 L 445 349" stroke-miterlimit="10"/><path fill="none" stroke="black" paint-order="fill stroke markers" d=" M 590 357 L 590 349" stroke-miterlimit="10"/><path fill="none" stroke="black" paint-order="fill stroke markers" d=" M 734 357 L 734 349" stroke-miterlimit="10"/><path fill="none" stroke="black" paint-order="fill stroke markers" d=" M 878 357 L 878 349" stroke-miterlimit="10"/><path fill="none" stroke="black" paint-order="fill stroke markers" d=" M 1022 357 L 1022 349" stroke-miterlimit="10"/><path fill="none" stroke="black" paint-order="fill stroke markers" d=" M 1167 357 L 1167 349" stroke-miterlimit="10"/><path fill="none" stroke="black" paint-order="fill stroke markers" d=" M 128 355 L 128 351" stroke-miterlimit="10"/><path fill="none" stroke="black" paint-order="fill stroke markers" d=" M 99 355 L 99 351" stroke-miterlimit="10"/><path fill="none" stroke="black" paint-order="fill stroke markers" d=" M 70 355 L 70 351" stroke-miterlimit="10"/><path fill="none" stroke="black" paint-order="fill stroke markers" d=" M 157 355 L 157 351" stroke-miterlimit="10"/><path fill="none" stroke="black" paint-order="fill stroke markers" d=" M 186 355 L 186 351" stroke-miterlimit="10"/><path fill="none" stroke="black" paint-order="fill stroke markers" d=" M 215 355 L 215 351" stroke-miterlimit="10"/><path fill="none" stroke="black" paint-order="fill stroke markers" d=" M 243 355 L 243 351" stroke-miterlimit="10"/><path fill="none" stroke="black" paint-order="fill stroke markers" d=" M 272 355 L 272 351" stroke-miterlimit="10"/><path fill="none" stroke="black" paint-order="fill stroke markers" d=" M 301 355 L 301 351" stroke-miterlimit="10"/><path fill="none" stroke="black" paint-order="fill stroke markers" d=" M 330 355 L 330 351" stroke-miterlimit="10"/><path fill="none" stroke="black" paint-order="fill stroke markers" d=" M 359 355 L 359 351" stroke-miterlimit="10"/><path fill="none" stroke="black" paint-order="fill stroke markers" d=" M 388 355 L 388 351" stroke-miterlimit="10"/><path fill="none" stroke="black" paint-order="fill stroke markers" d=" M 417 355 L 417 351" stroke-miterlimit="10"/><path fill="none" stroke="black" paint-order="fill stroke markers" d=" M 445 355 L 445 351" stroke-miterlimit="10"/><path fill="none" stroke="black" paint-order="fill stroke markers" d=" M 474 355 L 474 351" stroke-miterlimit="10"/><path fill="none" stroke="black" paint-order="fill stroke markers" d=" M 503 355 L 503 351" stroke-miterlimit="10"/><path fill="none" stroke="black" paint-order="fill stroke markers" d=" M 532 355 L 532 351" stroke-miterlimit="10"/><path fill="none" stroke="black" paint-order="fill stroke markers" d=" M 561 355 L 561 351" stroke-miterlimit="10"/><path fill="none" stroke="black" paint-order="fill stroke markers" d=" M 590 355 L 590 351" stroke-miterlimit="10"/><path fill="none" stroke="black" paint-order="fill stroke markers" d=" M 619 355 L 619 351" stroke-miterlimit="10"/><path fill="none" stroke="black" paint-order="fill stroke markers" d=" M 647 355 L 647 351" stroke-miterlimit="10"/><path fill="none" stroke="black" paint-order="fill stroke markers" d=" M 676 355 L 676 351" stroke-miterlimit="10"/><path fill="none" stroke="black" paint-order="fill stroke markers" d=" M 705 355 L 705 351" stroke-miterlimit="10"/><path fill="none" stroke="black" paint-order="fill stroke markers" d=" M 734 355 L 734 351" stroke-miterlimit="10"/><path fill="none" stroke="black" paint-order="fill stroke markers" d=" M 763 355 L 763 351" stroke-miterlimit="10"/><path fill="none" stroke="black" paint-order="fill stroke markers" d=" M 792 355 L 792 351" stroke-miterlimit="10"/><path fill="none" stroke="black" paint-order="fill stroke markers" d=" M 820 355 L 820 351" stroke-miterlimit="10"/><path fill="none" stroke="black" paint-order="fill stroke markers" d=" M 849 355 L 849 351" stroke-miterlimit="10"/><path fill="none" stroke="black" paint-order="fill stroke markers" d=" M 878 355 L 878 351" stroke-miterlimit="10"/><path fill="none" stroke="black" paint-order="fill stroke markers" d=" M 907 355 L 907 351" stroke-miterlimit="10"/><path fill="none" stroke="black" paint-order="fill stroke markers" d=" M 936 355 L 936 351" stroke-miterlimit="10"/><path fill="none" stroke="black" paint-order="fill stroke markers" d=" M 965 355 L 965 351" stroke-miterlimit="10"/><path fill="none" stroke="black" paint-order="fill stroke markers" d=" M 994 355 L 994 351" stroke-miterlimit="10"/><path fill="none" stroke="black" paint-order="fill stroke markers" d=" M 1022 355 L 1022 351" stroke-miterlimit="10"/><path fill="none" stroke="black" paint-order="fill stroke markers" d=" M 1051 355 L 1051 351" stroke-miterlimit="10"/><path fill="none" stroke="black" paint-order="fill stroke markers" d=" M 1080 355 L 1080 351" stroke-miterlimit="10"/><path fill="none" stroke="black" paint-order="fill stroke markers" d=" M 1109 355 L 1109 351" stroke-miterlimit="10"/><path fill="none" stroke="black" paint-order="fill stroke markers" d=" M 1138 355 L 1138 351" stroke-miterlimit="10"/><path fill="" stroke="black" paint-order="fill stroke markers" d=" M 1167 355 L 1167 351" stroke-miterlimit="10"/><g transform="translate(157,362) rotate(0,0,0)"><text fill="" stroke="none" font-family="helvetica" font-size="8pt" font-style="normal" font-weight="normal" text-decoration="normal" x="0" y="0" text-anchor="middle" dominant-baseline="hanging">120</text><g transform="rotate(0,0,0) translate(-157,-362) translate(301,362) rotate(0,0,0)"><text fill="" stroke="none" font-family="helvetica" font-size="8pt" font-style="normal" font-weight="normal" text-decoration="normal" x="0" y="0" text-anchor="middle" dominant-baseline="hanging">140</text><g transform="rotate(0,0,0) translate(-301,-362) translate(445,362) rotate(0,0,0)"><text fill="" stroke="none" font-family="helvetica" font-size="8pt" font-style="normal" font-weight="normal" text-decoration="normal" x="0" y="0" text-anchor="middle" dominant-baseline="hanging">160</text><g transform="rotate(0,0,0) translate(-445,-362) translate(590,362) rotate(0,0,0)"><text fill="" stroke="none" font-family="helvetica" font-size="8pt" font-style="normal" font-weight="normal" text-decoration="normal" x="0" y="0" text-anchor="middle" dominant-baseline="hanging">180</text><g transform="rotate(0,0,0) translate(-590,-362) translate(734,362) rotate(0,0,0)"><text fill="" stroke="none" font-family="helvetica" font-size="8pt" font-style="normal" font-weight="normal" text-decoration="normal" x="0" y="0" text-anchor="middle" dominant-baseline="hanging">200</text><g transform="rotate(0,0,0) translate(-734,-362) translate(878,362) rotate(0,0,0)"><text fill="" stroke="none" font-family="helvetica" font-size="8pt" font-style="normal" font-weight="normal" text-decoration="normal" x="0" y="0" text-anchor="middle" dominant-baseline="hanging">220</text><g transform="rotate(0,0,0) translate(-878,-362) translate(1022,362) rotate(0,0,0)"><text fill="" stroke="none" font-family="helvetica" font-size="8pt" font-style="normal" font-weight="normal" text-decoration="normal" x="0" y="0" text-anchor="middle" dominant-baseline="hanging">240</text><g transform="rotate(0,0,0) translate(-1022,-362) translate(1167,362) rotate(0,0,0)"><text fill="" stroke="none" font-family="helvetica" font-size="8pt" font-style="normal" font-weight="normal" text-decoration="normal" x="0" y="0" text-anchor="middle" dominant-baseline="hanging">260</text><g transform="rotate(0,0,0) translate(-1167,-362) translate(614,382) rotate(0,0,0)"><text fill="" stroke="none" font-family="helvetica" font-size="10pt" font-style="italic" font-weight="normal" text-decoration="normal" x="0" y="0" text-anchor="middle" dominant-baseline="hanging">ΔT(40J)</text><g transform="rotate(0,0,0) translate(-614,-382)"/></g></g></g></g></g></g></g></g></g></g><g fill="#444444"><path fill="none" stroke="black" paint-order="fill stroke markers" d=" M 57 351 L 57 5" stroke-miterlimit="10"/><path fill="none" stroke="black" paint-order="fill stroke markers" d=" M 51 320 L 59 320" stroke-miterlimit="10"/><path fill="none" stroke="black" paint-order="fill stroke markers" d=" M 51 275 L 59 275" stroke-miterlimit="10"/><path fill="none" stroke="black" paint-order="fill stroke markers" d=" M 51 230 L 59 230" stroke-miterlimit="10"/><path fill="none" stroke="black" paint-order="fill stroke markers" d=" M 51 185 L 59 185" stroke-miterlimit="10"/><path fill="none" stroke="black" paint-order="fill stroke markers" d=" M 51 141 L 59 141" stroke-miterlimit="10"/><path fill="none" stroke="black" paint-order="fill stroke markers" d=" M 51 96 L 59 96" stroke-miterlimit="10"/><path fill="none" stroke="black" paint-order="fill stroke markers" d=" M 51 51 L 59 51" stroke-miterlimit="10"/><path fill="none" stroke="black" paint-order="fill stroke markers" d=" M 51 6 L 59 6" stroke-miterlimit="10"/><path fill="none" stroke="black" paint-order="fill stroke markers" d=" M 53 329 L 57 329" stroke-miterlimit="10"/><path fill="none" stroke="black" paint-order="fill stroke markers" d=" M 53 338 L 57 338" stroke-miterlimit="10"/><path fill="none" stroke="black" paint-order="fill stroke markers" d=" M 53 347 L 57 347" stroke-miterlimit="10"/><path fill="none" stroke="black" paint-order="fill stroke markers" d=" M 53 320 L 57 320" stroke-miterlimit="10"/><path fill="none" stroke="black" paint-order="fill stroke markers" d=" M 53 311 L 57 311" stroke-miterlimit="10"/><path fill="none" stroke="black" paint-order="fill stroke markers" d=" M 53 302 L 57 302" stroke-miterlimit="10"/><path fill="none" stroke="black" paint-order="fill stroke markers" d=" M 53 293 L 57 293" stroke-miterlimit="10"/><path fill="none" stroke="black" paint-order="fill stroke markers" d=" M 53 284 L 57 284" stroke-miterlimit="10"/><path fill="none" stroke="black" paint-order="fill stroke markers" d=" M 53 275 L 57 275" stroke-miterlimit="10"/><path fill="none" stroke="black" paint-order="fill stroke markers" d=" M 53 266 L 57 266" stroke-miterlimit="10"/><path fill="none" stroke="black" paint-order="fill stroke markers" d=" M 53 257 L 57 257" stroke-miterlimit="10"/><path fill="none" stroke="black" paint-order="fill stroke markers" d=" M 53 248 L 57 248" stroke-miterlimit="10"/><path fill="none" stroke="black" paint-order="fill stroke markers" d=" M 53 239 L 57 239" stroke-miterlimit="10"/><path fill="none" stroke="black" paint-order="fill stroke markers" d=" M 53 230 L 57 230" stroke-miterlimit="10"/><path fill="none" stroke="black" paint-order="fill stroke markers" d=" M 53 221 L 57 221" stroke-miterlimit="10"/><path fill="none" stroke="black" paint-order="fill stroke markers" d=" M 53 212 L 57 212" stroke-miterlimit="10"/><path fill="none" stroke="black" paint-order="fill stroke markers" d=" M 53 203 L 57 203" stroke-miterlimit="10"/><path fill="none" stroke="black" paint-order="fill stroke markers" d=" M 53 194 L 57 194" stroke-miterlimit="10"/><path fill="none" stroke="black" paint-order="fill stroke markers" d=" M 53 185 L 57 185" stroke-miterlimit="10"/><path fill="none" stroke="black" paint-order="fill stroke markers" d=" M 53 176 L 57 176" stroke-miterlimit="10"/><path fill="none" stroke="black" paint-order="fill stroke markers" d=" M 53 167 L 57 167" stroke-miterlimit="10"/><path fill="none" stroke="black" paint-order="fill stroke markers" d=" M 53 159 L 57 159" stroke-miterlimit="10"/><path fill="none" stroke="black" paint-order="fill stroke markers" d=" M 53 150 L 57 150" stroke-miterlimit="10"/><path fill="none" stroke="black" paint-order="fill stroke markers" d=" M 53 141 L 57 141" stroke-miterlimit="10"/><path fill="none" stroke="black" paint-order="fill stroke markers" d=" M 53 132 L 57 132" stroke-miterlimit="10"/><path fill="none" stroke="black" paint-order="fill stroke markers" d=" M 53 123 L 57 123" stroke-miterlimit="10"/><path fill="none" stroke="black" paint-order="fill stroke markers" d=" M 53 114 L 57 114" stroke-miterlimit="10"/><path fill="none" stroke="black" paint-order="fill stroke markers" d=" M 53 105 L 57 105" stroke-miterlimit="10"/><path fill="none" stroke="black" paint-order="fill stroke markers" d=" M 53 96 L 57 96" stroke-miterlimit="10"/><path fill="none" stroke="black" paint-order="fill stroke markers" d=" M 53 87 L 57 87" stroke-miterlimit="10"/><path fill="none" stroke="black" paint-order="fill stroke markers" d=" M 53 78 L 57 78" stroke-miterlimit="10"/><path fill="none" stroke="black" paint-order="fill stroke markers" d=" M 53 69 L 57 69" stroke-miterlimit="10"/><path fill="none" stroke="black" paint-order="fill stroke markers" d=" M 53 60 L 57 60" stroke-miterlimit="10"/><path fill="none" stroke="black" paint-order="fill stroke markers" d=" M 53 51 L 57 51" stroke-miterlimit="10"/><path fill="none" stroke="black" paint-order="fill stroke markers" d=" M 53 42 L 57 42" stroke-miterlimit="10"/><path fill="none" stroke="black" paint-order="fill stroke markers" d=" M 53 33 L 57 33" stroke-miterlimit="10"/><path fill="none" stroke="black" paint-order="fill stroke markers" d=" M 53 24 L 57 24" stroke-miterlimit="10"/><path fill="none" stroke="black" paint-order="fill stroke markers" d=" M 53 15 L 57 15" stroke-miterlimit="10"/><path fill="" stroke="black" paint-order="fill stroke markers" d=" M 53 6 L 57 6" stroke-miterlimit="10"/><g transform="translate(46,320) rotate(0,0,0)"><text fill="" stroke="none" font-family="helvetica" font-size="8pt" font-style="normal" font-weight="normal" text-decoration="normal" x="0" y="0" text-anchor="end" dominant-baseline="central">120</text><g transform="rotate(0,0,0) translate(-46,-320) translate(46,275) rotate(0,0,0)"><text fill="" stroke="none" font-family="helvetica" font-size="8pt" font-style="normal" font-weight="normal" text-decoration="normal" x="0" y="0" text-anchor="end" dominant-baseline="central">140</text><g transform="rotate(0,0,0) translate(-46,-275) translate(46,230) rotate(0,0,0)"><text fill="" stroke="none" font-family="helvetica" font-size="8pt" font-style="normal" font-weight="normal" text-decoration="normal" x="0" y="0" text-anchor="end" dominant-baseline="central">160</text><g transform="rotate(0,0,0) translate(-46,-230) translate(46,185) rotate(0,0,0)"><text fill="" stroke="none" font-family="helvetica" font-size="8pt" font-style="normal" font-weight="normal" text-decoration="normal" x="0" y="0" text-anchor="end" dominant-baseline="central">180</text><g transform="rotate(0,0,0) translate(-46,-185) translate(46,141) rotate(0,0,0)"><text fill="" stroke="none" font-family="helvetica" font-size="8pt" font-style="normal" font-weight="normal" text-decoration="normal" x="0" y="0" text-anchor="end" dominant-baseline="central">200</text><g transform="rotate(0,0,0) translate(-46,-141) translate(46,96) rotate(0,0,0)"><text fill="" stroke="none" font-family="helvetica" font-size="8pt" font-style="normal" font-weight="normal" text-decoration="normal" x="0" y="0" text-anchor="end" dominant-baseline="central">220</text><g transform="rotate(0,0,0) translate(-46,-96) translate(46,51) rotate(0,0,0)"><text fill="" stroke="none" font-family="helvetica" font-size="8pt" font-style="normal" font-weight="normal" text-decoration="normal" x="0" y="0" text-anchor="end" dominant-baseline="central">240</text><g transform="rotate(0,0,0) translate(-46,-51) translate(46,6) rotate(0,0,0)"><text fill="" stroke="none" font-family="helvetica" font-size="8pt" font-style="normal" font-weight="normal" text-decoration="normal" x="0" y="0" text-anchor="end" dominant-baseline="central">260</text><g transform="rotate(0,0,0) translate(-46,-6) translate(18,178) rotate(-90,0,0)"><text fill="" stroke="none" font-family="helvetica" font-size="10pt" font-style="italic" font-weight="normal" text-decoration="normal" x="0" y="0" text-anchor="middle" dominant-baseline="alphabetic">Fit</text><g transform="rotate(90,0,0) translate(-18,-178)"/></g></g></g></g></g></g></g></g></g></g></g></g></g></svg>