<svg version="1.1" xmlns="http://www.w3.org/2000/svg" xmlns:xlink="http://www.w3.org/1999/xlink" width="1200" height="400" style="width: 1200px; height: 400px;"><defs><clipPath id="nnEkZTbzBIOK"><path fill="none" stroke="none" d=" M 52 5 L 1170 5 L 1170 355 L 52 355 L 52 5 Z"/></clipPath><clipPath id="DTVOcBsAoagE"><path fill="none" stroke="none" d=" M 52 5 L 1170 5 L 1170 355 L 52 355 L 52 5 Z"/></clipPath></defs><g><g transform="scale(1,1) translate(0.5,0.5)"><rect fill="#FFFFFF" stroke="none" x="0" y="0" width="1200" height="400"/><rect fill="#ffffff" stroke="none" x="0" y="0" width="1200" height="400"/><rect fill="#FFFFFF" stroke="none" x="52" y="5" width="1118" height="350"/><rect fill="#ffffff" stroke="none" x="52" y="5" width="1118" height="350"/><g><rect fill="none" stroke="#e5e5e5" x="52" y="5" width="1118" height="350" stroke-miterlimit="10"/></g><g clip-path="url(#nnEkZTbzBIOK)"><g><g><path fill="none" stroke="#e5e5e5" paint-order="fill stroke markers" d=" M 144 355 L 144 5" stroke-miterlimit="10"/><path fill="none" stroke="#e5e5e5" paint-order="fill stroke markers" d=" M 376 355 L 376 5" stroke-miterlimit="10"/><path fill="none" stroke="#e5e5e5" paint-order="fill stroke markers" d=" M 607 355 L 607 5" stroke-miterlimit="10"/><path fill="none" stroke="#e5e5e5" paint-order="fill stroke markers" d=" M 838 355 L 838 5" stroke-miterlimit="10"/><path fill="none" stroke="#e5e5e5" paint-order="fill stroke markers" d=" M 1070 355 L 1070 5" stroke-miterlimit="10"/></g><g><path fill="none" stroke="#e5e5e5" paint-order="fill stroke markers" d=" M 52 326 L 1170 326" stroke-miterlimit="10"/><path fill="none" stroke="#e5e5e5" paint-order="fill stroke markers" d=" M 52 254 L 1170 254" stroke-miterlimit="10"/><path fill="none" stroke="#e5e5e5" paint-order="fill stroke markers" d=" M 52 181 L 1170 181" stroke-miterlimit="10"/><path fill="none" stroke="#e5e5e5" paint-order="fill stroke markers" d=" M 52 109 L 1170 109" stroke-miterlimit="10"/><path fill="none" stroke="#e5e5e5" paint-order="fill stroke markers" d=" M 52 36 L 1170 36" stroke-miterlimit="10"/></g><g stroke="#1f77b4" stroke-miterlimit="10"><path fill="none" stroke="none"/><path fill="none" stroke="" d=""/><g transform="translate(435.8813453119102,286.97649464302305)"><path fill="none" stroke="" paint-order="fill stroke markers" d=" M -2 2 L 2 -2 M -2 -2 L 2 2"/><g transform="translate(-435.8813453119102,-286.97649464302305)"><path fill="none" stroke="" d=""/><g transform="translate(235.66223512035822,292.04595205065687)"><path fill="none" stroke="" paint-order="fill stroke markers" d=" M -2 2 L 2 -2 M -2 -2 L 2 2"/><g transform="translate(-235.66223512035822,-292.04595205065687)"><path fill="none" stroke="" d=""/><g transform="translate(238.77985437633697,253.6520547848529)"><path fill="none" stroke="" paint-order="fill stroke markers" d=" M -2 2 L 2 -2 M -2 -2 L 2 2"/><g transform="translate(-238.77985437633697,-253.6520547848529)"><path fill="none" stroke="" d=""/><g transform="translate(406.0996355971762,223.72687233179886)"><path fill="none" stroke="" paint-order="fill stroke markers" d=" M -2 2 L 2 -2 M -2 -2 L 2 2"/><g transform="translate(-406.0996355971762,-223.72687233179886)"><path fill="none" stroke="" d=""/><g transform="translate(798.4680562666385,225.18714182747112)"><path fill="none" stroke="" paint-order="fill stroke markers" d=" M -2 2 L 2 -2 M -2 -2 L 2 2"/><g transform="translate(-798.4680562666385,-225.18714182747112)"><path fill="none" stroke="" d=""/><g transform="translate(287.6055515523982,204.01951034605474)"><path fill="none" stroke="" paint-order="fill stroke markers" d=" M -2 2 L 2 -2 M -2 -2 L 2 2"/><g transform="translate(-287.6055515523982,-204.01951034605474)"><path fill="none" stroke="" d=""/><g transform="translate(102.81818181818187,232.8463547065624)"><path fill="none" stroke="" paint-order="fill stroke markers" d=" M -2 2 L 2 -2 M -2 -2 L 2 2"/><g transform="translate(-102.81818181818187,-232.8463547065624)"><path fill="none" stroke="" d=""/><g transform="translate(984.1065112724662,158.26986835638297)"><path fill="none" stroke="" paint-order="fill stroke markers" d=" M -2 2 L 2 -2 M -2 -2 L 2 2"/><g transform="translate(-984.1065112724662,-158.26986835638297)"><path fill="none" stroke="" d=""/><g transform="translate(859.6854333349306,156.29541993250012)"><path fill="none" stroke="" paint-order="fill stroke markers" d=" M -2 2 L 2 -2 M -2 -2 L 2 2"/><g transform="translate(-859.6854333349306,-156.29541993250012)"><path fill="none" stroke="" d=""/><g transform="translate(1119.1818181818182,130.73430203389154)"><path fill="none" stroke="" paint-order="fill stroke markers" d=" M -2 2 L 2 -2 M -2 -2 L 2 2"/><g transform="translate(-1119.1818181818182,-130.73430203389154)"><path fill="none" stroke="" d=""/><g transform="translate(668.516326177994,149.08761636001117)"><path fill="none" stroke="" paint-order="fill stroke markers" d=" M -2 2 L 2 -2 M -2 -2 L 2 2"/><g transform="translate(-668.516326177994,-149.08761636001117)"><path fill="none" stroke="" d=""/><g transform="translate(516.4610264170267,144.65121391377699)"><path fill="none" stroke="" paint-order="fill stroke markers" d=" M -2 2 L 2 -2 M -2 -2 L 2 2"/><g transform="translate(-516.4610264170267,-144.65121391377699)"><path fill="none" stroke="" d=""/><g transform="translate(848.9076972788496,97.2823585191694)"><path fill="none" stroke="" paint-order="fill stroke markers" d=" M -2 2 L 2 -2 M -2 -2 L 2 2"/><g transform="translate(-848.9076972788496,-97.2823585191694)"><path fill="none" stroke="" d=""/><g transform="translate(679.0605335757914,100.22266335996522)"><path fill="none" stroke="" paint-order="fill stroke markers" d=" M -2 2 L 2 -2 M -2 -2 L 2 2"/><g transform="translate(-679.0605335757914,-100.22266335996522)"><path fill="none" stroke="" d=""/><g transform="translate(1110.075293040124,66.72727717096723)"><path fill="none" stroke="" paint-order="fill stroke markers" d=" M -2 2 L 2 -2 M -2 -2 L 2 2"/><g transform="translate(-1110.075293040124,-66.72727717096723)"><path fill="none" stroke="" d=""/><g transform="translate(803.4467738090586,58.4853687184883)"><path fill="none" stroke="" paint-order="fill stroke markers" d=" M -2 2 L 2 -2 M -2 -2 L 2 2"/><g transform="translate(-803.4467738090586,-58.4853687184883)"/></g></g></g></g></g></g></g></g></g></g></g></g></g></g></g></g></g></g></g></g></g></g></g></g></g></g></g></g></g></g></g></g><g><path fill="none" stroke="none"/><path fill="none" stroke="green" paint-order="fill stroke markers" d=" M 102.81818181818187 339.0909090909091 L 123.56029684601117 332.5974025974026 L 144.30241187384047 326.1038961038962 L 165.04452690166977 319.6103896103897 L 185.78664192949907 313.1168831168832 L 206.52875695732848 306.62337662337666 L 227.27087198515778 300.12987012987014 L 248.01298701298708 293.6363636363637 L 268.75510204081627 287.1428571428572 L 289.4972170686457 280.6493506493507 L 310.239332096475 274.1558441558442 L 330.9814471243044 267.6623376623377 L 351.7235621521336 261.1688311688313 L 372.4656771799629 254.67532467532476 L 393.2077922077923 248.18181818181824 L 413.9499072356216 241.68831168831173 L 434.6920222634509 235.1948051948052 L 455.4341372912801 228.70129870129875 L 476.1762523191096 222.20779220779224 L 496.9183673469388 215.71428571428578 L 517.6604823747682 209.22077922077926 L 538.4025974025976 202.72727272727275 L 559.1447124304268 196.2337662337663 L 579.8868274582562 189.74025974025977 L 600.6289424860854 183.24675324675331 L 621.3710575139148 176.7532467532468 L 642.113172541744 170.25974025974028 L 662.8552875695732 163.76623376623382 L 683.5974025974028 157.2727272727273 L 704.339517625232 150.77922077922085 L 725.0816326530614 144.28571428571433 L 745.8237476808906 137.79220779220782 L 766.5658627087198 131.29870129870136 L 787.3079777365494 124.80519480519479 L 808.0500927643786 118.31168831168839 L 828.7922077922078 111.81818181818187 L 849.5343228200372 105.32467532467535 L 870.2764378478664 98.8311688311689 L 891.0185528756958 92.33766233766238 L 911.7606679035252 85.84415584415586 L 932.5027829313544 79.35064935064946 L 953.2448979591838 72.85714285714289 L 973.987012987013 66.36363636363643 L 994.7291280148422 59.87012987012997 L 1015.4712430426716 53.3766233766234 L 1036.2133580705013 46.883116883116884 L 1056.9554730983305 40.389610389610425 L 1077.6975881261596 33.896103896103966 L 1098.439703153989 27.402597402597394 L 1119.1818181818182 20.90909090909099" stroke-miterlimit="10" stroke-dasharray="6"/></g></g></g><g clip-path="url(#DTVOcBsAoagE)"><g/></g><g><g fill="#444444"><path fill="none" stroke="black" paint-order="fill stroke markers" d=" M 52 355 L 1170 355" stroke-miterlimit="10"/><path fill="none" stroke="black" paint-order="fill stroke markers" d=" M 144 361 L 144 353" stroke-miterlimit="10"/><path fill="none" stroke="black" paint-order="fill stroke markers" d=" M 376 361 L 376 353" stroke-miterlimit="10"/><path fill="none" stroke="black" paint-order="fill stroke markers" d=" M 607 361 L 607 353" stroke-miterlimit="10"/><path fill="none" stroke="black" paint-order="fill stroke markers" d=" M 838 361 L 838 353" stroke-miterlimit="10"/><path fill="none" stroke="black" paint-order="fill stroke markers" d=" M 1070 361 L 1070 353" stroke-miterlimit="10"/><path fill="none" stroke="black" paint-order="fill stroke markers" d=" M 98 359 L 98 355" stroke-miterlimit="10"/><path fill="none" stroke="black" paint-order="fill stroke markers" d=" M 144 359 L 144 355" stroke-miterlimit="10"/><path fill="none" stroke="black" paint-order="fill stroke markers" d=" M 190 359 L 190 355" stroke-miterlimit="10"/><path fill="none" stroke="black" paint-order="fill stroke markers" d=" M 237 359 L 237 355" stroke-miterlimit="10"/><path fill="none" stroke="black" paint-order="fill stroke markers" d=" M 283 359 L 283 355" stroke-miterlimit="10"/><path fill="none" stroke="black" paint-order="fill stroke markers" d=" M 329 359 L 329 355" stroke-miterlimit="10"/><path fill="none" stroke="black" paint-order="fill stroke markers" d=" M 376 359 L 376 355" stroke-miterlimit="10"/><path fill="none" stroke="black" paint-order="fill stroke markers" d=" M 422 359 L 422 355" stroke-miterlimit="10"/><path fill="none" stroke="black" paint-order="fill stroke markers" d=" M 468 359 L 468 355" stroke-miterlimit="10"/><path fill="none" stroke="black" paint-order="fill stroke markers" d=" M 514 359 L 514 355" stroke-miterlimit="10"/><path fill="none" stroke="black" paint-order="fill stroke markers" d=" M 561 359 L 561 355" stroke-miterlimit="10"/><path fill="none" stroke="black" paint-order="fill stroke markers" d=" M 607 359 L 607 355" stroke-miterlimit="10"/><path fill="none" stroke="black" paint-order="fill stroke markers" d=" M 653 359 L 653 355" stroke-miterlimit="10"/><path fill="none" stroke="black" paint-order="fill stroke markers" d=" M 700 359 L 700 355" stroke-miterlimit="10"/><path fill="none" stroke="black" paint-order="fill stroke markers" d=" M 746 359 L 746 355" stroke-miterlimit="10"/><path fill="none" stroke="black" paint-order="fill stroke markers" d=" M 792 359 L 792 355" stroke-miterlimit="10"/><path fill="none" stroke="black" paint-order="fill stroke markers" d=" M 838 359 L 838 355" stroke-miterlimit="10"/><path fill="none" stroke="black" paint-order="fill stroke markers" d=" M 885 359 L 885 355" stroke-miterlimit="10"/><path fill="none" stroke="black" paint-order="fill stroke markers" d=" M 931 359 L 931 355" stroke-miterlimit="10"/><path fill="none" stroke="black" paint-order="fill stroke markers" d=" M 977 359 L 977 355" stroke-miterlimit="10"/><path fill="none" stroke="black" paint-order="fill stroke markers" d=" M 1024 359 L 1024 355" stroke-miterlimit="10"/><path fill="none" stroke="black" paint-order="fill stroke markers" d=" M 1070 359 L 1070 355" stroke-miterlimit="10"/><path fill="none" stroke="black" paint-order="fill stroke markers" d=" M 1116 359 L 1116 355" stroke-miterlimit="10"/><path fill="" stroke="black" paint-order="fill stroke markers" d=" M 1162 359 L 1162 355" stroke-miterlimit="10"/><g transform="translate(144,366) rotate(0,0,0)"><text fill="" stroke="none" font-family="helvetica" font-size="8pt" font-style="normal" font-weight="normal" text-decoration="normal" x="0" y="0" text-anchor="middle" dominant-baseline="hanging">60</text><g transform="rotate(0,0,0) translate(-144,-366) translate(376,366) rotate(0,0,0)"><text fill="" stroke="none" font-family="helvetica" font-size="8pt" font-style="normal" font-weight="normal" text-decoration="normal" x="0" y="0" text-anchor="middle" dominant-baseline="hanging">80</text><g transform="rotate(0,0,0) translate(-376,-366) translate(607,366) rotate(0,0,0)"><text fill="" stroke="none" font-family="helvetica" font-size="8pt" font-style="normal" font-weight="normal" text-decoration="normal" x="0" y="0" text-anchor="middle" dominant-baseline="hanging">100</text><g transform="rotate(0,0,0) translate(-607,-366) translate(838,366) rotate(0,0,0)"><text fill="" stroke="none" font-family="helvetica" font-size="8pt" font-style="normal" font-weight="normal" text-decoration="normal" x="0" y="0" text-anchor="middle" dominant-baseline="hanging">120</text><g transform="rotate(0,0,0) translate(-838,-366) translate(1070,366) rotate(0,0,0)"><text fill="" stroke="none" font-family="helvetica" font-size="8pt" font-style="normal" font-weight="normal" text-decoration="normal" x="0" y="0" text-anchor="middle" dominant-baseline="hanging">140</text><g transform="rotate(0,0,0) translate(-1070,-366) translate(611,384) rotate(0,0,0)"><text fill="" stroke="none" font-family="helvetica" font-size="10pt" font-style="italic" font-weight="normal" text-decoration="normal" x="0" y="0" text-anchor="middle" dominant-baseline="hanging">ΔT(40J)</text><g transform="rotate(0,0,0) translate(-611,-384)"/></g></g></g></g></g></g></g><g fill="#444444"><path fill="none" stroke="black" paint-order="fill stroke markers" d=" M 52 355 L 52 5" stroke-miterlimit="10"/><path fill="none" stroke="black" paint-order="fill stroke markers" d=" M 46 326 L 54 326" stroke-miterlimit="10"/><path fill="none" stroke="black" paint-order="fill stroke markers" d=" M 46 254 L 54 254" stroke-miterlimit="10"/><path fill="none" stroke="black" paint-order="fill stroke markers" d=" M 46 181 L 54 181" stroke-miterlimit="10"/><path fill="none" stroke="black" paint-order="fill stroke markers" d=" M 46 109 L 54 109" stroke-miterlimit="10"/><path fill="none" stroke="black" paint-order="fill stroke markers" d=" M 46 36 L 54 36" stroke-miterlimit="10"/><path fill="none" stroke="black" paint-order="fill stroke markers" d=" M 48 341 L 52 341" stroke-miterlimit="10"/><path fill="none" stroke="black" paint-order="fill stroke markers" d=" M 48 326 L 52 326" stroke-miterlimit="10"/><path fill="none" stroke="black" paint-order="fill stroke markers" d=" M 48 312 L 52 312" stroke-miterlimit="10"/><path fill="none" stroke="black" paint-order="fill stroke markers" d=" M 48 297 L 52 297" stroke-miterlimit="10"/><path fill="none" stroke="black" paint-order="fill stroke markers" d=" M 48 283 L 52 283" stroke-miterlimit="10"/><path fill="none" stroke="black" paint-order="fill stroke markers" d=" M 48 268 L 52 268" stroke-miterlimit="10"/><path fill="none" stroke="black" paint-order="fill stroke markers" d=" M 48 254 L 52 254" stroke-miterlimit="10"/><path fill="none" stroke="black" paint-order="fill stroke markers" d=" M 48 239 L 52 239" stroke-miterlimit="10"/><path fill="none" stroke="black" paint-order="fill stroke markers" d=" M 48 225 L 52 225" stroke-miterlimit="10"/><path fill="none" stroke="black" paint-order="fill stroke markers" d=" M 48 210 L 52 210" stroke-miterlimit="10"/><path fill="none" stroke="black" paint-order="fill stroke markers" d=" M 48 196 L 52 196" stroke-miterlimit="10"/><path fill="none" stroke="black" paint-order="fill stroke markers" d=" M 48 181 L 52 181" stroke-miterlimit="10"/><path fill="none" stroke="black" paint-order="fill stroke markers" d=" M 48 167 L 52 167" stroke-miterlimit="10"/><path fill="none" stroke="black" paint-order="fill stroke markers" d=" M 48 152 L 52 152" stroke-miterlimit="10"/><path fill="none" stroke="black" paint-order="fill stroke markers" d=" M 48 138 L 52 138" stroke-miterlimit="10"/><path fill="none" stroke="black" paint-order="fill stroke markers" d=" M 48 123 L 52 123" stroke-miterlimit="10"/><path fill="none" stroke="black" paint-order="fill stroke markers" d=" M 48 109 L 52 109" stroke-miterlimit="10"/><path fill="none" stroke="black" paint-order="fill stroke markers" d=" M 48 94 L 52 94" stroke-miterlimit="10"/><path fill="none" stroke="black" paint-order="fill stroke markers" d=" M 48 80 L 52 80" stroke-miterlimit="10"/><path fill="none" stroke="black" paint-order="fill stroke markers" d=" M 48 65 L 52 65" stroke-miterlimit="10"/><path fill="none" stroke="black" paint-order="fill stroke markers" d=" M 48 51 L 52 51" stroke-miterlimit="10"/><path fill="none" stroke="black" paint-order="fill stroke markers" d=" M 48 36 L 52 36" stroke-miterlimit="10"/><path fill="none" stroke="black" paint-order="fill stroke markers" d=" M 48 22 L 52 22" stroke-miterlimit="10"/><path fill="" stroke="black" paint-order="fill stroke markers" d=" M 48 7 L 52 7" stroke-miterlimit="10"/><g transform="translate(41,326) rotate(0,0,0)"><text fill="" stroke="none" font-family="helvetica" font-size="8pt" font-style="normal" font-weight="normal" text-decoration="normal" x="0" y="0" text-anchor="end" dominant-baseline="central">60</text><g transform="rotate(0,0,0) translate(-41,-326) translate(41,254) rotate(0,0,0)"><text fill="" stroke="none" font-family="helvetica" font-size="8pt" font-style="normal" font-weight="normal" text-decoration="normal" x="0" y="0" text-anchor="end" dominant-baseline="central">80</text><g transform="rotate(0,0,0) translate(-41,-254) translate(41,181) rotate(0,0,0)"><text fill="" stroke="none" font-family="helvetica" font-size="8pt" font-style="normal" font-weight="normal" text-decoration="normal" x="0" y="0" text-anchor="end" dominant-baseline="central">100</text><g transform="rotate(0,0,0) translate(-41,-181) translate(41,109) rotate(0,0,0)"><text fill="" stroke="none" font-family="helvetica" font-size="8pt" font-style="normal" font-weight="normal" text-decoration="normal" x="0" y="0" text-anchor="end" dominant-baseline="central">120</text><g transform="rotate(0,0,0) translate(-41,-109) translate(41,36) rotate(0,0,0)"><text fill="" stroke="none" font-family="helvetica" font-size="8pt" font-style="normal" font-weight="normal" text-decoration="normal" x="0" y="0" text-anchor="end" dominant-baseline="central">140</text><g transform="rotate(0,0,0) translate(-41,-36) translate(16,180) rotate(-90,0,0)"><text fill="" stroke="none" font-family="helvetica" font-size="10pt" font-style="italic" font-weight="normal" text-decoration="normal" x="0" y="0" text-anchor="middle" dominant-baseline="alphabetic">Fit</text><g transform="rotate(90,0,0) translate(-16,-180)"/></g></g></g></g></g></g></g></g></g></g></svg>