<svg version="1.1" xmlns="http://www.w3.org/2000/svg" xmlns:xlink="http://www.w3.org/1999/xlink" width="600" height="600" style="width: 600px; height: 600px;"><defs><clipPath id="MyZfiKAUcwrq"><path fill="none" stroke="none" d=" M 52 5 L 570 5 L 570 555 L 52 555 L 52 5 Z"/></clipPath><clipPath id="DhZElTogUgEJ"><path fill="none" stroke="none" d=" M 52 5 L 570 5 L 570 555 L 52 555 L 52 5 Z"/></clipPath></defs><g><g transform="scale(1,1) translate(0.5,0.5)"><rect fill="#FFFFFF" stroke="none" x="0" y="0" width="600" height="600"/><rect fill="#ffffff" stroke="none" x="0" y="0" width="600" height="600"/><rect fill="#FFFFFF" stroke="none" x="52" y="5" width="518" height="550"/><rect fill="#ffffff" stroke="none" x="52" y="5" width="518" height="550"/><g><rect fill="none" stroke="#e5e5e5" x="52" y="5" width="518" height="550" stroke-miterlimit="10"/></g><g clip-path="url(#MyZfiKAUcwrq)"><g><g><path fill="none" stroke="#e5e5e5" paint-order="fill stroke markers" d=" M 95 555 L 95 5" stroke-miterlimit="10"/><path fill="none" stroke="#e5e5e5" paint-order="fill stroke markers" d=" M 202 555 L 202 5" stroke-miterlimit="10"/><path fill="none" stroke="#e5e5e5" paint-order="fill stroke markers" d=" M 309 555 L 309 5" stroke-miterlimit="10"/><path fill="none" stroke="#e5e5e5" paint-order="fill stroke markers" d=" M 416 555 L 416 5" stroke-miterlimit="10"/><path fill="none" stroke="#e5e5e5" paint-order="fill stroke markers" d=" M 524 555 L 524 5" stroke-miterlimit="10"/></g><g><path fill="none" stroke="#e5e5e5" paint-order="fill stroke markers" d=" M 52 510 L 570 510" stroke-miterlimit="10"/><path fill="none" stroke="#e5e5e5" paint-order="fill stroke markers" d=" M 52 396 L 570 396" stroke-miterlimit="10"/><path fill="none" stroke="#e5e5e5" paint-order="fill stroke markers" d=" M 52 282 L 570 282" stroke-miterlimit="10"/><path fill="none" stroke="#e5e5e5" paint-order="fill stroke markers" d=" M 52 168 L 570 168" stroke-miterlimit="10"/><path fill="none" stroke="#e5e5e5" paint-order="fill stroke markers" d=" M 52 54 L 570 54" stroke-miterlimit="10"/></g><g stroke="#1f77b4" stroke-miterlimit="10"><path fill="none" stroke="none"/><path fill="none" stroke="" d=""/><g transform="translate(229.86273423217307,448.1059201533218)"><path fill="none" stroke="" paint-order="fill stroke markers" d=" M -2 2 L 2 -2 M -2 -2 L 2 2"/><g transform="translate(-229.86273423217307,-448.1059201533218)"><path fill="none" stroke="" d=""/><g transform="translate(137.09574042249153,456.07221036531774)"><path fill="none" stroke="" paint-order="fill stroke markers" d=" M -2 2 L 2 -2 M -2 -2 L 2 2"/><g transform="translate(-137.09574042249153,-456.07221036531774)"><path fill="none" stroke="" d=""/><g transform="translate(138.54021875397365,395.7389432333402)"><path fill="none" stroke="" paint-order="fill stroke markers" d=" M -2 2 L 2 -2 M -2 -2 L 2 2"/><g transform="translate(-138.54021875397365,-395.7389432333402)"><path fill="none" stroke="" d=""/><g transform="translate(216.06405298688486,348.7136565213981)"><path fill="none" stroke="" paint-order="fill stroke markers" d=" M -2 2 L 2 -2 M -2 -2 L 2 2"/><g transform="translate(-216.06405298688486,-348.7136565213981)"><path fill="none" stroke="" d=""/><g transform="translate(397.8590815260454,351.00836572888306)"><path fill="none" stroke="" paint-order="fill stroke markers" d=" M -2 2 L 2 -2 M -2 -2 L 2 2"/><g transform="translate(-397.8590815260454,-351.00836572888306)"><path fill="none" stroke="" d=""/><g transform="translate(161.1625006298231,317.74494482951445)"><path fill="none" stroke="" paint-order="fill stroke markers" d=" M -2 2 L 2 -2 M -2 -2 L 2 2"/><g transform="translate(-161.1625006298231,-317.74494482951445)"><path fill="none" stroke="" d=""/><g transform="translate(75.54545454545456,363.0442716817408)"><path fill="none" stroke="" paint-order="fill stroke markers" d=" M -2 2 L 2 -2 M -2 -2 L 2 2"/><g transform="translate(-75.54545454545456,-363.0442716817408)"><path fill="none" stroke="" d=""/><g transform="translate(483.8704587112142,245.85265027431603)"><path fill="none" stroke="" paint-order="fill stroke markers" d=" M -2 2 L 2 -2 M -2 -2 L 2 2"/><g transform="translate(-483.8704587112142,-245.85265027431603)"><path fill="none" stroke="" d=""/><g transform="translate(426.22276786001254,242.74994560821438)"><path fill="none" stroke="" paint-order="fill stroke markers" d=" M -2 2 L 2 -2 M -2 -2 L 2 2"/><g transform="translate(-426.22276786001254,-242.74994560821438)"><path fill="none" stroke="" d=""/><g transform="translate(546.4545454545455,202.5824746246866)"><path fill="none" stroke="" paint-order="fill stroke markers" d=" M -2 2 L 2 -2 M -2 -2 L 2 2"/><g transform="translate(-546.4545454545455,-202.5824746246866)"><path fill="none" stroke="" d=""/><g transform="translate(337.6488881576036,231.42339713716024)"><path fill="none" stroke="" paint-order="fill stroke markers" d=" M -2 2 L 2 -2 M -2 -2 L 2 2"/><g transform="translate(-337.6488881576036,-231.42339713716024)"><path fill="none" stroke="" d=""/><g transform="translate(267.19750597855085,224.45190757879232)"><path fill="none" stroke="" paint-order="fill stroke markers" d=" M -2 2 L 2 -2 M -2 -2 L 2 2"/><g transform="translate(-267.19750597855085,-224.45190757879232)"><path fill="none" stroke="" d=""/><g transform="translate(421.22914775531666,150.01513481583754)"><path fill="none" stroke="" paint-order="fill stroke markers" d=" M -2 2 L 2 -2 M -2 -2 L 2 2"/><g transform="translate(-421.22914775531666,-150.01513481583754)"><path fill="none" stroke="" d=""/><g transform="translate(342.5343080431663,154.63561385137382)"><path fill="none" stroke="" paint-order="fill stroke markers" d=" M -2 2 L 2 -2 M -2 -2 L 2 2"/><g transform="translate(-342.5343080431663,-154.63561385137382)"><path fill="none" stroke="" d=""/><g transform="translate(542.235243108036,102.00000698294832)"><path fill="none" stroke="" paint-order="fill stroke markers" d=" M -2 2 L 2 -2 M -2 -2 L 2 2"/><g transform="translate(-542.235243108036,-102.00000698294832)"><path fill="none" stroke="" d=""/><g transform="translate(400.16585763246184,89.04843655762431)"><path fill="none" stroke="" paint-order="fill stroke markers" d=" M -2 2 L 2 -2 M -2 -2 L 2 2"/><g transform="translate(-400.16585763246184,-89.04843655762431)"/></g></g></g></g></g></g></g></g></g></g></g></g></g></g></g></g></g></g></g></g></g></g></g></g></g></g></g></g></g></g></g></g><g><path fill="none" stroke="none"/><path fill="none" stroke="green" paint-order="fill stroke markers" d=" M 75.54545454545456 530 L 85.15584415584419 519.7959183673469 L 94.76623376623377 509.59183673469386 L 104.3766233766234 499.3877551020408 L 113.98701298701297 489.1836734693877 L 123.5974025974026 478.97959183673464 L 133.20779220779224 468.77551020408157 L 142.81818181818187 458.5714285714285 L 152.4285714285714 448.3673469387755 L 162.03896103896102 438.1632653061224 L 171.64935064935065 427.95918367346934 L 181.25974025974028 417.75510204081627 L 190.87012987012986 407.55102040816325 L 200.4805194805195 397.3469387755102 L 210.09090909090912 387.1428571428571 L 219.7012987012987 376.93877551020404 L 229.31168831168833 366.73469387755097 L 238.9220779220779 356.53061224489795 L 248.5324675324676 346.32653061224477 L 258.14285714285717 336.1224489795918 L 267.7532467532468 325.9183673469387 L 277.36363636363643 315.71428571428567 L 286.974025974026 305.51020408163265 L 296.5844155844157 295.3061224489795 L 306.19480519480516 285.1020408163265 L 315.80519480519484 274.8979591836734 L 325.4155844155844 264.69387755102036 L 335.025974025974 254.48979591836735 L 344.6363636363637 244.2857142857141 L 354.24675324675326 234.0816326530612 L 363.85714285714295 223.87755102040808 L 373.4675324675325 213.67346938775506 L 383.0779220779221 203.46938775510205 L 392.6883116883118 193.2653061224488 L 402.29870129870136 183.0612244897959 L 411.90909090909093 172.85714285714278 L 421.5194805194806 162.65306122448965 L 431.1298701298701 152.44897959183675 L 440.7402597402598 142.24489795918362 L 450.35064935064935 132.0408163265305 L 459.9610389610389 121.83673469387759 L 469.5714285714286 111.63265306122435 L 479.1818181818182 101.42857142857133 L 488.79220779220776 91.22448979591843 L 498.40259740259745 81.02040816326519 L 508.01298701298714 70.81632653061206 L 517.6233766233768 60.612244897959044 L 527.2337662337663 50.40816326530603 L 536.8441558441559 40.2040816326529 L 546.4545454545455 29.999999999999886" stroke-miterlimit="10" stroke-dasharray="6"/></g></g></g><g clip-path="url(#DhZElTogUgEJ)"><g/></g><g><g fill="#444444"><path fill="none" stroke="black" paint-order="fill stroke markers" d=" M 52 555 L 570 555" stroke-miterlimit="10"/><path fill="none" stroke="black" paint-order="fill stroke markers" d=" M 95 561 L 95 553" stroke-miterlimit="10"/><path fill="none" stroke="black" paint-order="fill stroke markers" d=" M 202 561 L 202 553" stroke-miterlimit="10"/><path fill="none" stroke="black" paint-order="fill stroke markers" d=" M 309 561 L 309 553" stroke-miterlimit="10"/><path fill="none" stroke="black" paint-order="fill stroke markers" d=" M 416 561 L 416 553" stroke-miterlimit="10"/><path fill="none" stroke="black" paint-order="fill stroke markers" d=" M 524 561 L 524 553" stroke-miterlimit="10"/><path fill="none" stroke="black" paint-order="fill stroke markers" d=" M 73 559 L 73 555" stroke-miterlimit="10"/><path fill="none" stroke="black" paint-order="fill stroke markers" d=" M 95 559 L 95 555" stroke-miterlimit="10"/><path fill="none" stroke="black" paint-order="fill stroke markers" d=" M 116 559 L 116 555" stroke-miterlimit="10"/><path fill="none" stroke="black" paint-order="fill stroke markers" d=" M 138 559 L 138 555" stroke-miterlimit="10"/><path fill="none" stroke="black" paint-order="fill stroke markers" d=" M 159 559 L 159 555" stroke-miterlimit="10"/><path fill="none" stroke="black" paint-order="fill stroke markers" d=" M 180 559 L 180 555" stroke-miterlimit="10"/><path fill="none" stroke="black" paint-order="fill stroke markers" d=" M 202 559 L 202 555" stroke-miterlimit="10"/><path fill="none" stroke="black" paint-order="fill stroke markers" d=" M 223 559 L 223 555" stroke-miterlimit="10"/><path fill="none" stroke="black" paint-order="fill stroke markers" d=" M 245 559 L 245 555" stroke-miterlimit="10"/><path fill="none" stroke="black" paint-order="fill stroke markers" d=" M 266 559 L 266 555" stroke-miterlimit="10"/><path fill="none" stroke="black" paint-order="fill stroke markers" d=" M 288 559 L 288 555" stroke-miterlimit="10"/><path fill="none" stroke="black" paint-order="fill stroke markers" d=" M 309 559 L 309 555" stroke-miterlimit="10"/><path fill="none" stroke="black" paint-order="fill stroke markers" d=" M 331 559 L 331 555" stroke-miterlimit="10"/><path fill="none" stroke="black" paint-order="fill stroke markers" d=" M 352 559 L 352 555" stroke-miterlimit="10"/><path fill="none" stroke="black" paint-order="fill stroke markers" d=" M 373 559 L 373 555" stroke-miterlimit="10"/><path fill="none" stroke="black" paint-order="fill stroke markers" d=" M 395 559 L 395 555" stroke-miterlimit="10"/><path fill="none" stroke="black" paint-order="fill stroke markers" d=" M 416 559 L 416 555" stroke-miterlimit="10"/><path fill="none" stroke="black" paint-order="fill stroke markers" d=" M 438 559 L 438 555" stroke-miterlimit="10"/><path fill="none" stroke="black" paint-order="fill stroke markers" d=" M 459 559 L 459 555" stroke-miterlimit="10"/><path fill="none" stroke="black" paint-order="fill stroke markers" d=" M 481 559 L 481 555" stroke-miterlimit="10"/><path fill="none" stroke="black" paint-order="fill stroke markers" d=" M 502 559 L 502 555" stroke-miterlimit="10"/><path fill="none" stroke="black" paint-order="fill stroke markers" d=" M 524 559 L 524 555" stroke-miterlimit="10"/><path fill="none" stroke="black" paint-order="fill stroke markers" d=" M 545 559 L 545 555" stroke-miterlimit="10"/><path fill="" stroke="black" paint-order="fill stroke markers" d=" M 566 559 L 566 555" stroke-miterlimit="10"/><g transform="translate(95,566) rotate(0,0,0)"><text fill="" stroke="none" font-family="helvetica" font-size="8pt" font-style="normal" font-weight="normal" text-decoration="normal" x="0" y="0" text-anchor="middle" dominant-baseline="hanging">60</text><g transform="rotate(0,0,0) translate(-95,-566) translate(202,566) rotate(0,0,0)"><text fill="" stroke="none" font-family="helvetica" font-size="8pt" font-style="normal" font-weight="normal" text-decoration="normal" x="0" y="0" text-anchor="middle" dominant-baseline="hanging">80</text><g transform="rotate(0,0,0) translate(-202,-566) translate(309,566) rotate(0,0,0)"><text fill="" stroke="none" font-family="helvetica" font-size="8pt" font-style="normal" font-weight="normal" text-decoration="normal" x="0" y="0" text-anchor="middle" dominant-baseline="hanging">100</text><g transform="rotate(0,0,0) translate(-309,-566) translate(416,566) rotate(0,0,0)"><text fill="" stroke="none" font-family="helvetica" font-size="8pt" font-style="normal" font-weight="normal" text-decoration="normal" x="0" y="0" text-anchor="middle" dominant-baseline="hanging">120</text><g transform="rotate(0,0,0) translate(-416,-566) translate(524,566) rotate(0,0,0)"><text fill="" stroke="none" font-family="helvetica" font-size="8pt" font-style="normal" font-weight="normal" text-decoration="normal" x="0" y="0" text-anchor="middle" dominant-baseline="hanging">140</text><g transform="rotate(0,0,0) translate(-524,-566) translate(311,584) rotate(0,0,0)"><text fill="" stroke="none" font-family="helvetica" font-size="10pt" font-style="italic" font-weight="normal" text-decoration="normal" x="0" y="0" text-anchor="middle" dominant-baseline="hanging">ΔT(40J)</text><g transform="rotate(0,0,0) translate(-311,-584)"/></g></g></g></g></g></g></g><g fill="#444444"><path fill="none" stroke="black" paint-order="fill stroke markers" d=" M 52 555 L 52 5" stroke-miterlimit="10"/><path fill="none" stroke="black" paint-order="fill stroke markers" d=" M 46 510 L 54 510" stroke-miterlimit="10"/><path fill="none" stroke="black" paint-order="fill stroke markers" d=" M 46 396 L 54 396" stroke-miterlimit="10"/><path fill="none" stroke="black" paint-order="fill stroke markers" d=" M 46 282 L 54 282" stroke-miterlimit="10"/><path fill="none" stroke="black" paint-order="fill stroke markers" d=" M 46 168 L 54 168" stroke-miterlimit="10"/><path fill="none" stroke="black" paint-order="fill stroke markers" d=" M 46 54 L 54 54" stroke-miterlimit="10"/><path fill="none" stroke="black" paint-order="fill stroke markers" d=" M 48 532 L 52 532" stroke-miterlimit="10"/><path fill="none" stroke="black" paint-order="fill stroke markers" d=" M 48 510 L 52 510" stroke-miterlimit="10"/><path fill="none" stroke="black" paint-order="fill stroke markers" d=" M 48 487 L 52 487" stroke-miterlimit="10"/><path fill="none" stroke="black" paint-order="fill stroke markers" d=" M 48 464 L 52 464" stroke-miterlimit="10"/><path fill="none" stroke="black" paint-order="fill stroke markers" d=" M 48 441 L 52 441" stroke-miterlimit="10"/><path fill="none" stroke="black" paint-order="fill stroke markers" d=" M 48 419 L 52 419" stroke-miterlimit="10"/><path fill="none" stroke="black" paint-order="fill stroke markers" d=" M 48 396 L 52 396" stroke-miterlimit="10"/><path fill="none" stroke="black" paint-order="fill stroke markers" d=" M 48 373 L 52 373" stroke-miterlimit="10"/><path fill="none" stroke="black" paint-order="fill stroke markers" d=" M 48 350 L 52 350" stroke-miterlimit="10"/><path fill="none" stroke="black" paint-order="fill stroke markers" d=" M 48 328 L 52 328" stroke-miterlimit="10"/><path fill="none" stroke="black" paint-order="fill stroke markers" d=" M 48 305 L 52 305" stroke-miterlimit="10"/><path fill="none" stroke="black" paint-order="fill stroke markers" d=" M 48 282 L 52 282" stroke-miterlimit="10"/><path fill="none" stroke="black" paint-order="fill stroke markers" d=" M 48 259 L 52 259" stroke-miterlimit="10"/><path fill="none" stroke="black" paint-order="fill stroke markers" d=" M 48 236 L 52 236" stroke-miterlimit="10"/><path fill="none" stroke="black" paint-order="fill stroke markers" d=" M 48 214 L 52 214" stroke-miterlimit="10"/><path fill="none" stroke="black" paint-order="fill stroke markers" d=" M 48 191 L 52 191" stroke-miterlimit="10"/><path fill="none" stroke="black" paint-order="fill stroke markers" d=" M 48 168 L 52 168" stroke-miterlimit="10"/><path fill="none" stroke="black" paint-order="fill stroke markers" d=" M 48 145 L 52 145" stroke-miterlimit="10"/><path fill="none" stroke="black" paint-order="fill stroke markers" d=" M 48 123 L 52 123" stroke-miterlimit="10"/><path fill="none" stroke="black" paint-order="fill stroke markers" d=" M 48 100 L 52 100" stroke-miterlimit="10"/><path fill="none" stroke="black" paint-order="fill stroke markers" d=" M 48 77 L 52 77" stroke-miterlimit="10"/><path fill="none" stroke="black" paint-order="fill stroke markers" d=" M 48 54 L 52 54" stroke-miterlimit="10"/><path fill="none" stroke="black" paint-order="fill stroke markers" d=" M 48 32 L 52 32" stroke-miterlimit="10"/><path fill="" stroke="black" paint-order="fill stroke markers" d=" M 48 9 L 52 9" stroke-miterlimit="10"/><g transform="translate(41,510) rotate(0,0,0)"><text fill="" stroke="none" font-family="helvetica" font-size="8pt" font-style="normal" font-weight="normal" text-decoration="normal" x="0" y="0" text-anchor="end" dominant-baseline="central">60</text><g transform="rotate(0,0,0) translate(-41,-510) translate(41,396) rotate(0,0,0)"><text fill="" stroke="none" font-family="helvetica" font-size="8pt" font-style="normal" font-weight="normal" text-decoration="normal" x="0" y="0" text-anchor="end" dominant-baseline="central">80</text><g transform="rotate(0,0,0) translate(-41,-396) translate(41,282) rotate(0,0,0)"><text fill="" stroke="none" font-family="helvetica" font-size="8pt" font-style="normal" font-weight="normal" text-decoration="normal" x="0" y="0" text-anchor="end" dominant-baseline="central">100</text><g transform="rotate(0,0,0) translate(-41,-282) translate(41,168) rotate(0,0,0)"><text fill="" stroke="none" font-family="helvetica" font-size="8pt" font-style="normal" font-weight="normal" text-decoration="normal" x="0" y="0" text-anchor="end" dominant-baseline="central">120</text><g transform="rotate(0,0,0) translate(-41,-168) translate(41,54) rotate(0,0,0)"><text fill="" stroke="none" font-family="helvetica" font-size="8pt" font-style="normal" font-weight="normal" text-decoration="normal" x="0" y="0" text-anchor="end" dominant-baseline="central">140</text><g transform="rotate(0,0,0) translate(-41,-54) translate(16,280) rotate(-90,0,0)"><text fill="" stroke="none" font-family="helvetica" font-size="10pt" font-style="italic" font-weight="normal" text-decoration="normal" x="0" y="0" text-anchor="middle" dominant-baseline="alphabetic">Fit</text><g transform="rotate(90,0,0) translate(-16,-280)"/></g></g></g></g></g></g></g></g></g></g></svg>