<svg version="1.1" xmlns="http://www.w3.org/2000/svg" xmlns:xlink="http://www.w3.org/1999/xlink" width="600" height="600" style="width: 600px; height: 600px;"><defs><clipPath id="QDdNZGAwxHtD"><path fill="none" stroke="none" d=" M 34 5 L 570 5 L 570 574 L 34 574 L 34 5 Z"/></clipPath><clipPath id="QTmvqaardLBG"><path fill="none" stroke="none" d=" M 34 5 L 570 5 L 570 574 L 34 574 L 34 5 Z"/></clipPath></defs><g><g transform="scale(1,1) translate(0.5,0.5)"><rect fill="#FFFFFF" stroke="none" x="0" y="0" width="600" height="600"/><rect fill="#ffffff" stroke="none" x="0" y="0" width="600" height="600"/><rect fill="#FFFFFF" stroke="none" x="34" y="5" width="536" height="569"/><rect fill="#ffffff" stroke="none" x="34" y="5" width="536" height="569"/><g><rect fill="none" stroke="#e5e5e5" x="34" y="5" width="536" height="569" stroke-miterlimit="10"/></g><g clip-path="url(#QDdNZGAwxHtD)"><g><g><path fill="none" stroke="#e5e5e5" paint-order="fill stroke markers" d=" M 82 574 L 82 5" stroke-miterlimit="10"/><path fill="none" stroke="#e5e5e5" paint-order="fill stroke markers" d=" M 152 574 L 152 5" stroke-miterlimit="10"/><path fill="none" stroke="#e5e5e5" paint-order="fill stroke markers" d=" M 221 574 L 221 5" stroke-miterlimit="10"/><path fill="none" stroke="#e5e5e5" paint-order="fill stroke markers" d=" M 291 574 L 291 5" stroke-miterlimit="10"/><path fill="none" stroke="#e5e5e5" paint-order="fill stroke markers" d=" M 360 574 L 360 5" stroke-miterlimit="10"/><path fill="none" stroke="#e5e5e5" paint-order="fill stroke markers" d=" M 429 574 L 429 5" stroke-miterlimit="10"/><path fill="none" stroke="#e5e5e5" paint-order="fill stroke markers" d=" M 499 574 L 499 5" stroke-miterlimit="10"/><path fill="none" stroke="#e5e5e5" paint-order="fill stroke markers" d=" M 568 574 L 568 5" stroke-miterlimit="10"/></g><g><path fill="none" stroke="#e5e5e5" paint-order="fill stroke markers" d=" M 34 523 L 570 523" stroke-miterlimit="10"/><path fill="none" stroke="#e5e5e5" paint-order="fill stroke markers" d=" M 34 449 L 570 449" stroke-miterlimit="10"/><path fill="none" stroke="#e5e5e5" paint-order="fill stroke markers" d=" M 34 375 L 570 375" stroke-miterlimit="10"/><path fill="none" stroke="#e5e5e5" paint-order="fill stroke markers" d=" M 34 302 L 570 302" stroke-miterlimit="10"/><path fill="none" stroke="#e5e5e5" paint-order="fill stroke markers" d=" M 34 228 L 570 228" stroke-miterlimit="10"/><path fill="none" stroke="#e5e5e5" paint-order="fill stroke markers" d=" M 34 154 L 570 154" stroke-miterlimit="10"/><path fill="none" stroke="#e5e5e5" paint-order="fill stroke markers" d=" M 34 80 L 570 80" stroke-miterlimit="10"/><path fill="none" stroke="#e5e5e5" paint-order="fill stroke markers" d=" M 34 7 L 570 7" stroke-miterlimit="10"/></g><g stroke="#1f77b4" stroke-miterlimit="10"><path fill="none" stroke="none"/><path fill="none" stroke="" d=""/><g transform="translate(58.36363636363643,293.0225782966987)"><path fill="none" stroke="" paint-order="fill stroke markers" d=" M -2 2 L 2 -2 M -2 -2 L 2 2"/><g transform="translate(-58.36363636363643,-293.0225782966987)"><path fill="none" stroke="" d=""/><g transform="translate(394.1785600310653,293.0225782966987)"><path fill="none" stroke="" paint-order="fill stroke markers" d=" M -2 2 L 2 -2 M -2 -2 L 2 2"/><g transform="translate(-394.1785600310653,-293.0225782966987)"><path fill="none" stroke="" d=""/><g transform="translate(300.51506991528726,261.4945405623988)"><path fill="none" stroke="" paint-order="fill stroke markers" d=" M -2 2 L 2 -2 M -2 -2 L 2 2"/><g transform="translate(-300.51506991528726,-261.4945405623988)"><path fill="none" stroke="" d=""/><g transform="translate(415.38228963133685,212.49778886738227)"><path fill="none" stroke="" paint-order="fill stroke markers" d=" M -2 2 L 2 -2 M -2 -2 L 2 2"/><g transform="translate(-415.38228963133685,-212.49778886738227)"><path fill="none" stroke="" d=""/><g transform="translate(414.91175935191353,206.57920639723147)"><path fill="none" stroke="" paint-order="fill stroke markers" d=" M -2 2 L 2 -2 M -2 -2 L 2 2"/><g transform="translate(-414.91175935191353,-206.57920639723147)"><path fill="none" stroke="" d=""/><g transform="translate(432.6008098179797,245.7653347202007)"><path fill="none" stroke="" paint-order="fill stroke markers" d=" M -2 2 L 2 -2 M -2 -2 L 2 2"/><g transform="translate(-432.6008098179797,-245.7653347202007)"><path fill="none" stroke="" d=""/><g transform="translate(321.52443127483474,388.79402450320015)"><path fill="none" stroke="" paint-order="fill stroke markers" d=" M -2 2 L 2 -2 M -2 -2 L 2 2"/><g transform="translate(-321.52443127483474,-388.79402450320015)"><path fill="none" stroke="" d=""/><g transform="translate(431.3066224325269,268.3691954396885)"><path fill="none" stroke="" paint-order="fill stroke markers" d=" M -2 2 L 2 -2 M -2 -2 L 2 2"/><g transform="translate(-431.3066224325269,-268.3691954396885)"><path fill="none" stroke="" d=""/><g transform="translate(545.6363636363637,290.20032063298436)"><path fill="none" stroke="" paint-order="fill stroke markers" d=" M -2 2 L 2 -2 M -2 -2 L 2 2"/><g transform="translate(-545.6363636363637,-290.20032063298436)"><path fill="none" stroke="" d=""/><g transform="translate(224.92132209437506,275.05844911798647)"><path fill="none" stroke="" paint-order="fill stroke markers" d=" M -2 2 L 2 -2 M -2 -2 L 2 2"/><g transform="translate(-224.92132209437506,-275.05844911798647)"><path fill="none" stroke="" d=""/><g transform="translate(87.49173754670369,448.27158781221374)"><path fill="none" stroke="" paint-order="fill stroke markers" d=" M -2 2 L 2 -2 M -2 -2 L 2 2"/><g transform="translate(-87.49173754670369,-448.27158781221374)"><path fill="none" stroke="" d=""/><g transform="translate(183.57315891374475,355.0303625398816)"><path fill="none" stroke="" paint-order="fill stroke markers" d=" M -2 2 L 2 -2 M -2 -2 L 2 2"/><g transform="translate(-183.57315891374475,-355.0303625398816)"><path fill="none" stroke="" d=""/><g transform="translate(258.97883325681056,251.23218605910472)"><path fill="none" stroke="" paint-order="fill stroke markers" d=" M -2 2 L 2 -2 M -2 -2 L 2 2"/><g transform="translate(-258.97883325681056,-251.23218605910472)"><path fill="none" stroke="" d=""/><g transform="translate(434.4368390477352,209.19781687698458)"><path fill="none" stroke="" paint-order="fill stroke markers" d=" M -2 2 L 2 -2 M -2 -2 L 2 2"/><g transform="translate(-434.4368390477352,-209.19781687698458)"><path fill="none" stroke="" d=""/><g transform="translate(348.858100329675,217.70954142417725)"><path fill="none" stroke="" paint-order="fill stroke markers" d=" M -2 2 L 2 -2 M -2 -2 L 2 2"/><g transform="translate(-348.858100329675,-217.70954142417725)"><path fill="none" stroke="" d=""/><g transform="translate(321.1640379945563,239.86176079690233)"><path fill="none" stroke="" paint-order="fill stroke markers" d=" M -2 2 L 2 -2 M -2 -2 L 2 2"/><g transform="translate(-321.1640379945563,-239.86176079690233)"><path fill="none" stroke="" d=""/><g transform="translate(373.3313524069419,183.15530435737946)"><path fill="none" stroke="" paint-order="fill stroke markers" d=" M -2 2 L 2 -2 M -2 -2 L 2 2"/><g transform="translate(-373.3313524069419,-183.15530435737946)"><path fill="none" stroke="" d=""/><g transform="translate(491.83450617398745,167.8632654339658)"><path fill="none" stroke="" paint-order="fill stroke markers" d=" M -2 2 L 2 -2 M -2 -2 L 2 2"/><g transform="translate(-491.83450617398745,-167.8632654339658)"><path fill="none" stroke="" d=""/><g transform="translate(239.24610218550453,219.29286430435116)"><path fill="none" stroke="" paint-order="fill stroke markers" d=" M -2 2 L 2 -2 M -2 -2 L 2 2"/><g transform="translate(-239.24610218550453,-219.29286430435116)"><path fill="none" stroke="" d=""/><g transform="translate(298.9726937427568,193.27746315688591)"><path fill="none" stroke="" paint-order="fill stroke markers" d=" M -2 2 L 2 -2 M -2 -2 L 2 2"/><g transform="translate(-298.9726937427568,-193.27746315688591)"/></g></g></g></g></g></g></g></g></g></g></g></g></g></g></g></g></g></g></g></g></g></g></g></g></g></g></g></g></g></g></g></g></g></g></g></g></g></g></g></g><g><path fill="none" stroke="none"/><path fill="none" stroke="green" paint-order="fill stroke markers" d=" M 58.36363636363643 548.1363636363635 L 68.30797773654922 537.5797773654915 L 78.25231910946201 527.0231910946195 L 88.1966604823748 516.4666048237475 L 98.14100185528764 505.91001855287556 L 108.08534322820043 495.35343228200355 L 118.02968460111322 484.7968460111316 L 127.974025974026 474.24025974025966 L 137.91836734693885 463.6836734693876 L 147.86270871985164 453.1270871985157 L 157.80705009276448 442.5705009276436 L 167.75139146567722 432.0139146567717 L 177.69573283859 421.4573283858997 L 187.64007421150274 410.9007421150278 L 197.5844155844157 400.3441558441557 L 207.52875695732843 389.7875695732838 L 217.47309833024127 379.2309833024117 L 227.417439703154 368.6743970315398 L 237.36178107606685 358.1178107606678 L 247.30612244897958 347.5612244897959 L 257.2504638218924 337.0046382189238 L 267.19480519480516 326.4480519480519 L 277.1391465677181 315.8914656771798 L 287.08348794063085 305.3348794063079 L 297.0278293135436 294.7782931354359 L 306.9721706864564 284.221706864564 L 316.91651205936927 273.6651205936919 L 326.8608534322821 263.1085343228199 L 336.80519480519484 252.55194805194787 L 346.7495361781076 241.99536178107599 L 356.6938775510204 231.43877551020398 L 366.63821892393315 220.8821892393321 L 376.582560296846 210.32560296845998 L 386.52690166975884 199.76901669758797 L 396.4712430426717 189.21243042671597 L 406.4155844155844 178.65584415584408 L 416.35992578849715 168.09925788497208 L 426.30426716141 157.5426716141002 L 436.24860853432284 146.98608534322807 L 446.1929499072357 136.42949907235607 L 456.1372912801484 125.87291280148406 L 466.08163265306126 115.31632653061217 L 476.025974025974 104.75974025974017 L 485.97031539888684 94.20315398886817 L 495.91465677179957 83.64656771799616 L 505.8589981447124 73.08998144712427 L 515.8033395176253 62.53339517625216 L 525.747680890538 51.97680890538027 L 535.6920222634508 41.420222634508264 L 545.6363636363637 30.86363636363626" stroke-miterlimit="10" stroke-dasharray="6"/></g></g></g><g clip-path="url(#QTmvqaardLBG)"><g/></g><g><g fill="#444444"><path fill="none" stroke="black" paint-order="fill stroke markers" d=" M 34 574 L 570 574" stroke-miterlimit="10"/><path fill="none" stroke="black" paint-order="fill stroke markers" d=" M 82 580 L 82 572" stroke-miterlimit="10"/><path fill="none" stroke="black" paint-order="fill stroke markers" d=" M 152 580 L 152 572" stroke-miterlimit="10"/><path fill="none" stroke="black" paint-order="fill stroke markers" d=" M 221 580 L 221 572" stroke-miterlimit="10"/><path fill="none" stroke="black" paint-order="fill stroke markers" d=" M 291 580 L 291 572" stroke-miterlimit="10"/><path fill="none" stroke="black" paint-order="fill stroke markers" d=" M 360 580 L 360 572" stroke-miterlimit="10"/><path fill="none" stroke="black" paint-order="fill stroke markers" d=" M 429 580 L 429 572" stroke-miterlimit="10"/><path fill="none" stroke="black" paint-order="fill stroke markers" d=" M 499 580 L 499 572" stroke-miterlimit="10"/><path fill="none" stroke="black" paint-order="fill stroke markers" d=" M 568 580 L 568 572" stroke-miterlimit="10"/><path fill="none" stroke="black" paint-order="fill stroke markers" d=" M 68 578 L 68 574" stroke-miterlimit="10"/><path fill="none" stroke="black" paint-order="fill stroke markers" d=" M 54 578 L 54 574" stroke-miterlimit="10"/><path fill="none" stroke="black" paint-order="fill stroke markers" d=" M 40 578 L 40 574" stroke-miterlimit="10"/><path fill="none" stroke="black" paint-order="fill stroke markers" d=" M 82 578 L 82 574" stroke-miterlimit="10"/><path fill="none" stroke="black" paint-order="fill stroke markers" d=" M 96 578 L 96 574" stroke-miterlimit="10"/><path fill="none" stroke="black" paint-order="fill stroke markers" d=" M 110 578 L 110 574" stroke-miterlimit="10"/><path fill="none" stroke="black" paint-order="fill stroke markers" d=" M 124 578 L 124 574" stroke-miterlimit="10"/><path fill="none" stroke="black" paint-order="fill stroke markers" d=" M 138 578 L 138 574" stroke-miterlimit="10"/><path fill="none" stroke="black" paint-order="fill stroke markers" d=" M 152 578 L 152 574" stroke-miterlimit="10"/><path fill="none" stroke="black" paint-order="fill stroke markers" d=" M 165 578 L 165 574" stroke-miterlimit="10"/><path fill="none" stroke="black" paint-order="fill stroke markers" d=" M 179 578 L 179 574" stroke-miterlimit="10"/><path fill="none" stroke="black" paint-order="fill stroke markers" d=" M 193 578 L 193 574" stroke-miterlimit="10"/><path fill="none" stroke="black" paint-order="fill stroke markers" d=" M 207 578 L 207 574" stroke-miterlimit="10"/><path fill="none" stroke="black" paint-order="fill stroke markers" d=" M 221 578 L 221 574" stroke-miterlimit="10"/><path fill="none" stroke="black" paint-order="fill stroke markers" d=" M 235 578 L 235 574" stroke-miterlimit="10"/><path fill="none" stroke="black" paint-order="fill stroke markers" d=" M 249 578 L 249 574" stroke-miterlimit="10"/><path fill="none" stroke="black" paint-order="fill stroke markers" d=" M 263 578 L 263 574" stroke-miterlimit="10"/><path fill="none" stroke="black" paint-order="fill stroke markers" d=" M 277 578 L 277 574" stroke-miterlimit="10"/><path fill="none" stroke="black" paint-order="fill stroke markers" d=" M 291 578 L 291 574" stroke-miterlimit="10"/><path fill="none" stroke="black" paint-order="fill stroke markers" d=" M 304 578 L 304 574" stroke-miterlimit="10"/><path fill="none" stroke="black" paint-order="fill stroke markers" d=" M 318 578 L 318 574" stroke-miterlimit="10"/><path fill="none" stroke="black" paint-order="fill stroke markers" d=" M 332 578 L 332 574" stroke-miterlimit="10"/><path fill="none" stroke="black" paint-order="fill stroke markers" d=" M 346 578 L 346 574" stroke-miterlimit="10"/><path fill="none" stroke="black" paint-order="fill stroke markers" d=" M 360 578 L 360 574" stroke-miterlimit="10"/><path fill="none" stroke="black" paint-order="fill stroke markers" d=" M 374 578 L 374 574" stroke-miterlimit="10"/><path fill="none" stroke="black" paint-order="fill stroke markers" d=" M 388 578 L 388 574" stroke-miterlimit="10"/><path fill="none" stroke="black" paint-order="fill stroke markers" d=" M 402 578 L 402 574" stroke-miterlimit="10"/><path fill="none" stroke="black" paint-order="fill stroke markers" d=" M 416 578 L 416 574" stroke-miterlimit="10"/><path fill="none" stroke="black" paint-order="fill stroke markers" d=" M 429 578 L 429 574" stroke-miterlimit="10"/><path fill="none" stroke="black" paint-order="fill stroke markers" d=" M 443 578 L 443 574" stroke-miterlimit="10"/><path fill="none" stroke="black" paint-order="fill stroke markers" d=" M 457 578 L 457 574" stroke-miterlimit="10"/><path fill="none" stroke="black" paint-order="fill stroke markers" d=" M 471 578 L 471 574" stroke-miterlimit="10"/><path fill="none" stroke="black" paint-order="fill stroke markers" d=" M 485 578 L 485 574" stroke-miterlimit="10"/><path fill="none" stroke="black" paint-order="fill stroke markers" d=" M 499 578 L 499 574" stroke-miterlimit="10"/><path fill="none" stroke="black" paint-order="fill stroke markers" d=" M 513 578 L 513 574" stroke-miterlimit="10"/><path fill="none" stroke="black" paint-order="fill stroke markers" d=" M 527 578 L 527 574" stroke-miterlimit="10"/><path fill="none" stroke="black" paint-order="fill stroke markers" d=" M 541 578 L 541 574" stroke-miterlimit="10"/><path fill="none" stroke="black" paint-order="fill stroke markers" d=" M 555 578 L 555 574" stroke-miterlimit="10"/><path fill="" stroke="black" paint-order="fill stroke markers" d=" M 568 578 L 568 574" stroke-miterlimit="10"/><g transform="translate(82,585) rotate(0,0,0)"><text fill="" stroke="none" font-family="helvetica" font-size="8pt" font-style="normal" font-weight="normal" text-decoration="normal" x="0" y="0" text-anchor="middle" dominant-baseline="hanging">120</text><g transform="rotate(0,0,0) translate(-82,-585) translate(152,585) rotate(0,0,0)"><text fill="" stroke="none" font-family="helvetica" font-size="8pt" font-style="normal" font-weight="normal" text-decoration="normal" x="0" y="0" text-anchor="middle" dominant-baseline="hanging">140</text><g transform="rotate(0,0,0) translate(-152,-585) translate(221,585) rotate(0,0,0)"><text fill="" stroke="none" font-family="helvetica" font-size="8pt" font-style="normal" font-weight="normal" text-decoration="normal" x="0" y="0" text-anchor="middle" dominant-baseline="hanging">160</text><g transform="rotate(0,0,0) translate(-221,-585) translate(291,585) rotate(0,0,0)"><text fill="" stroke="none" font-family="helvetica" font-size="8pt" font-style="normal" font-weight="normal" text-decoration="normal" x="0" y="0" text-anchor="middle" dominant-baseline="hanging">180</text><g transform="rotate(0,0,0) translate(-291,-585) translate(360,585) rotate(0,0,0)"><text fill="" stroke="none" font-family="helvetica" font-size="8pt" font-style="normal" font-weight="normal" text-decoration="normal" x="0" y="0" text-anchor="middle" dominant-baseline="hanging">200</text><g transform="rotate(0,0,0) translate(-360,-585) translate(429,585) rotate(0,0,0)"><text fill="" stroke="none" font-family="helvetica" font-size="8pt" font-style="normal" font-weight="normal" text-decoration="normal" x="0" y="0" text-anchor="middle" dominant-baseline="hanging">220</text><g transform="rotate(0,0,0) translate(-429,-585) translate(499,585) rotate(0,0,0)"><text fill="" stroke="none" font-family="helvetica" font-size="8pt" font-style="normal" font-weight="normal" text-decoration="normal" x="0" y="0" text-anchor="middle" dominant-baseline="hanging">240</text><g transform="rotate(0,0,0) translate(-499,-585) translate(568,585) rotate(0,0,0)"><text fill="" stroke="none" font-family="helvetica" font-size="8pt" font-style="normal" font-weight="normal" text-decoration="normal" x="0" y="0" text-anchor="middle" dominant-baseline="hanging">260</text><g transform="rotate(0,0,0) translate(-568,-585)"/></g></g></g></g></g></g></g></g></g><g fill="#444444"><path fill="none" stroke="black" paint-order="fill stroke markers" d=" M 34 574 L 34 5" stroke-miterlimit="10"/><path fill="none" stroke="black" paint-order="fill stroke markers" d=" M 28 523 L 36 523" stroke-miterlimit="10"/><path fill="none" stroke="black" paint-order="fill stroke markers" d=" M 28 449 L 36 449" stroke-miterlimit="10"/><path fill="none" stroke="black" paint-order="fill stroke markers" d=" M 28 375 L 36 375" stroke-miterlimit="10"/><path fill="none" stroke="black" paint-order="fill stroke markers" d=" M 28 302 L 36 302" stroke-miterlimit="10"/><path fill="none" stroke="black" paint-order="fill stroke markers" d=" M 28 228 L 36 228" stroke-miterlimit="10"/><path fill="none" stroke="black" paint-order="fill stroke markers" d=" M 28 154 L 36 154" stroke-miterlimit="10"/><path fill="none" stroke="black" paint-order="fill stroke markers" d=" M 28 80 L 36 80" stroke-miterlimit="10"/><path fill="none" stroke="black" paint-order="fill stroke markers" d=" M 28 7 L 36 7" stroke-miterlimit="10"/><path fill="none" stroke="black" paint-order="fill stroke markers" d=" M 30 538 L 34 538" stroke-miterlimit="10"/><path fill="none" stroke="black" paint-order="fill stroke markers" d=" M 30 552 L 34 552" stroke-miterlimit="10"/><path fill="none" stroke="black" paint-order="fill stroke markers" d=" M 30 567 L 34 567" stroke-miterlimit="10"/><path fill="none" stroke="black" paint-order="fill stroke markers" d=" M 30 523 L 34 523" stroke-miterlimit="10"/><path fill="none" stroke="black" paint-order="fill stroke markers" d=" M 30 508 L 34 508" stroke-miterlimit="10"/><path fill="none" stroke="black" paint-order="fill stroke markers" d=" M 30 493 L 34 493" stroke-miterlimit="10"/><path fill="none" stroke="black" paint-order="fill stroke markers" d=" M 30 479 L 34 479" stroke-miterlimit="10"/><path fill="none" stroke="black" paint-order="fill stroke markers" d=" M 30 464 L 34 464" stroke-miterlimit="10"/><path fill="none" stroke="black" paint-order="fill stroke markers" d=" M 30 449 L 34 449" stroke-miterlimit="10"/><path fill="none" stroke="black" paint-order="fill stroke markers" d=" M 30 434 L 34 434" stroke-miterlimit="10"/><path fill="none" stroke="black" paint-order="fill stroke markers" d=" M 30 420 L 34 420" stroke-miterlimit="10"/><path fill="none" stroke="black" paint-order="fill stroke markers" d=" M 30 405 L 34 405" stroke-miterlimit="10"/><path fill="none" stroke="black" paint-order="fill stroke markers" d=" M 30 390 L 34 390" stroke-miterlimit="10"/><path fill="none" stroke="black" paint-order="fill stroke markers" d=" M 30 375 L 34 375" stroke-miterlimit="10"/><path fill="none" stroke="black" paint-order="fill stroke markers" d=" M 30 361 L 34 361" stroke-miterlimit="10"/><path fill="none" stroke="black" paint-order="fill stroke markers" d=" M 30 346 L 34 346" stroke-miterlimit="10"/><path fill="none" stroke="black" paint-order="fill stroke markers" d=" M 30 331 L 34 331" stroke-miterlimit="10"/><path fill="none" stroke="black" paint-order="fill stroke markers" d=" M 30 316 L 34 316" stroke-miterlimit="10"/><path fill="none" stroke="black" paint-order="fill stroke markers" d=" M 30 302 L 34 302" stroke-miterlimit="10"/><path fill="none" stroke="black" paint-order="fill stroke markers" d=" M 30 287 L 34 287" stroke-miterlimit="10"/><path fill="none" stroke="black" paint-order="fill stroke markers" d=" M 30 272 L 34 272" stroke-miterlimit="10"/><path fill="none" stroke="black" paint-order="fill stroke markers" d=" M 30 257 L 34 257" stroke-miterlimit="10"/><path fill="none" stroke="black" paint-order="fill stroke markers" d=" M 30 243 L 34 243" stroke-miterlimit="10"/><path fill="none" stroke="black" paint-order="fill stroke markers" d=" M 30 228 L 34 228" stroke-miterlimit="10"/><path fill="none" stroke="black" paint-order="fill stroke markers" d=" M 30 213 L 34 213" stroke-miterlimit="10"/><path fill="none" stroke="black" paint-order="fill stroke markers" d=" M 30 198 L 34 198" stroke-miterlimit="10"/><path fill="none" stroke="black" paint-order="fill stroke markers" d=" M 30 184 L 34 184" stroke-miterlimit="10"/><path fill="none" stroke="black" paint-order="fill stroke markers" d=" M 30 169 L 34 169" stroke-miterlimit="10"/><path fill="none" stroke="black" paint-order="fill stroke markers" d=" M 30 154 L 34 154" stroke-miterlimit="10"/><path fill="none" stroke="black" paint-order="fill stroke markers" d=" M 30 139 L 34 139" stroke-miterlimit="10"/><path fill="none" stroke="black" paint-order="fill stroke markers" d=" M 30 125 L 34 125" stroke-miterlimit="10"/><path fill="none" stroke="black" paint-order="fill stroke markers" d=" M 30 110 L 34 110" stroke-miterlimit="10"/><path fill="none" stroke="black" paint-order="fill stroke markers" d=" M 30 95 L 34 95" stroke-miterlimit="10"/><path fill="none" stroke="black" paint-order="fill stroke markers" d=" M 30 80 L 34 80" stroke-miterlimit="10"/><path fill="none" stroke="black" paint-order="fill stroke markers" d=" M 30 66 L 34 66" stroke-miterlimit="10"/><path fill="none" stroke="black" paint-order="fill stroke markers" d=" M 30 51 L 34 51" stroke-miterlimit="10"/><path fill="none" stroke="black" paint-order="fill stroke markers" d=" M 30 36 L 34 36" stroke-miterlimit="10"/><path fill="none" stroke="black" paint-order="fill stroke markers" d=" M 30 21 L 34 21" stroke-miterlimit="10"/><path fill="" stroke="black" paint-order="fill stroke markers" d=" M 30 7 L 34 7" stroke-miterlimit="10"/><g transform="translate(23,523) rotate(0,0,0)"><text fill="" stroke="none" font-family="helvetica" font-size="8pt" font-style="normal" font-weight="normal" text-decoration="normal" x="0" y="0" text-anchor="end" dominant-baseline="central">120</text><g transform="rotate(0,0,0) translate(-23,-523) translate(23,449) rotate(0,0,0)"><text fill="" stroke="none" font-family="helvetica" font-size="8pt" font-style="normal" font-weight="normal" text-decoration="normal" x="0" y="0" text-anchor="end" dominant-baseline="central">140</text><g transform="rotate(0,0,0) translate(-23,-449) translate(23,375) rotate(0,0,0)"><text fill="" stroke="none" font-family="helvetica" font-size="8pt" font-style="normal" font-weight="normal" text-decoration="normal" x="0" y="0" text-anchor="end" dominant-baseline="central">160</text><g transform="rotate(0,0,0) translate(-23,-375) translate(23,302) rotate(0,0,0)"><text fill="" stroke="none" font-family="helvetica" font-size="8pt" font-style="normal" font-weight="normal" text-decoration="normal" x="0" y="0" text-anchor="end" dominant-baseline="central">180</text><g transform="rotate(0,0,0) translate(-23,-302) translate(23,228) rotate(0,0,0)"><text fill="" stroke="none" font-family="helvetica" font-size="8pt" font-style="normal" font-weight="normal" text-decoration="normal" x="0" y="0" text-anchor="end" dominant-baseline="central">200</text><g transform="rotate(0,0,0) translate(-23,-228) translate(23,154) rotate(0,0,0)"><text fill="" stroke="none" font-family="helvetica" font-size="8pt" font-style="normal" font-weight="normal" text-decoration="normal" x="0" y="0" text-anchor="end" dominant-baseline="central">220</text><g transform="rotate(0,0,0) translate(-23,-154) translate(23,80) rotate(0,0,0)"><text fill="" stroke="none" font-family="helvetica" font-size="8pt" font-style="normal" font-weight="normal" text-decoration="normal" x="0" y="0" text-anchor="end" dominant-baseline="central">240</text><g transform="rotate(0,0,0) translate(-23,-80) translate(23,7) rotate(0,0,0)"><text fill="" stroke="none" font-family="helvetica" font-size="8pt" font-style="normal" font-weight="normal" text-decoration="normal" x="0" y="0" text-anchor="end" dominant-baseline="central">260</text><g transform="rotate(0,0,0) translate(-23,-7)"/></g></g></g></g></g></g></g></g></g></g></g></g></svg>